<svg xmlns="http://www.w3.org/2000/svg" viewBox="-20 0 111.17 97.94"><defs><style>.cls-1{fill:none;stroke:#e1ddc4;stroke-miterlimit:10;stroke-width:2px;}</style></defs><g id="Layer_2" data-name="Layer 2"><g id="Layer_1-2" data-name="Layer 1"><path class="cls-1" d="M32.93,71.67l-3.53-1V87.28s12.9,5.54,19.62.3V72.3l-1.43-.73.12,3.16"/><path class="cls-1" d="M54.23,42.08a1.68,1.68,0,0,1-.17.75L50.8,49.92l-1.6,3.94-1.08,2.66a0,0,0,0,0,0,.06l1.12,3.15a5.73,5.73,0,0,1,.32,2.36l-.14,2a6,6,0,0,1-1.48,3.53l-.45.51a.11.11,0,0,0,0,.06l.25,6.52a.09.09,0,0,1-.06.09,15.32,15.32,0,0,1-4.53.69,15.49,15.49,0,0,1-9.66-3.42l-.53-.42a.09.09,0,0,1,0-.07L34.72,68s-1.31-2-1.33-2.06L28.3,58.23a9.38,9.38,0,0,1-.92-2.62l-.46-2.08L25,45v0l3.37-10.9a2,2,0,0,1,2.35-1.41l.24.06a2,2,0,0,1,1.46,2.46l-2.07,9.19v0l1.84,5.28a.08.08,0,0,0,.15,0l2-6.64v0l5.9-10.3A1.79,1.79,0,0,1,42.71,32l.26.15a2.11,2.11,0,0,1,.91,2.57L40.14,45.05h0L39,49.84a.08.08,0,1,0,.16,0l1.78-5h0l4.53-10a1.87,1.87,0,0,1,2.35-1L48,34a2.13,2.13,0,0,1,1.26,2.55L46.43,47.35h0l-1.85,4a.09.09,0,0,0,.15.08l2.34-3.8L51,41.23a1.8,1.8,0,0,1,2.35-.71A1.74,1.74,0,0,1,54.23,42.08Z"/><path class="cls-1" d="M2.42,4.15V1.06S29.58,2.51,33.6,2.6A6,6,0,0,1,39,6l-3.69.6h.09l-.33,0,.24,0L1.07,4.14,4.12,50.7l22.8,2.83"/><path class="cls-1" d="M49.2,53.86,74.33,50.7l3-46.56L43.42,6.59l-.09,0L39.39,6A6.06,6.06,0,0,1,44.81,2.6C48.84,2.51,76,1.06,76,1.06V4.15"/></g></g></svg>