<svg xmlns="http://www.w3.org/2000/svg" viewBox="0 -15 121.17 107.94"><defs><style>.cls-1{fill:none;stroke:#e1ddc4;stroke-miterlimit:10;stroke-width:2px;}</style></defs><g id="Layer_2" data-name="Layer 2"><g id="Layer_1-2" data-name="Layer 1"><path class="cls-1" d="M87.43,19.92l-4.62.63-10,1.52a1.37,1.37,0,0,0-.77-.64l-1.93-.67a1.44,1.44,0,0,0-1.38.26l-2.37,2-8.58,1.3a1.42,1.42,0,0,1,.3-2,43.49,43.49,0,0,0,8.74-7.82A1.42,1.42,0,0,1,68.16,14L85.41,16.7a1.42,1.42,0,0,1,1.09.88Z"/><path class="cls-1" d="M97.81,48.63c-.19.56-.4,1.11-.6,1.66-.28.76-.58,1.5-.85,2.23l-.25.95-.06.23a1.49,1.49,0,0,1-.55-.14L88,49.85l-9.74-4.8a1.5,1.5,0,0,1-.33-.23c-1.25-1.14-10.09-9.12-15.47-10.11a1.47,1.47,0,0,1-.91-.58l-3.47-5a1.39,1.39,0,0,1-.25-.81V26a1.41,1.41,0,0,1,.63-1.18,1.3,1.3,0,0,1,.7-.23,7.88,7.88,0,0,1,4,1.2c.45.25.94.55,1.46.91s.87.61,1.34,1a1.33,1.33,0,0,0,.39.21l5.5,2a1.42,1.42,0,0,0,1.89-1.51l-.37-3.11,4.87-.8.07.55a72.14,72.14,0,0,0,10.92-.74l4.33,10.88a1.51,1.51,0,0,0,.52.65l4.4,3C99.5,42.36,98.83,45.6,97.81,48.63Z"/><path class="cls-1" d="M96,20.75l-.75.82-.14,1.5a42.9,42.9,0,0,1-5.93,1.23A72,72,0,0,1,78.26,25l-.06-.55-4.88.8-8.74,1.43c-.53-.36-1-.66-1.47-.91a7.88,7.88,0,0,0-4-1.2,1.29,1.29,0,0,0-.69.23l-.2-.11a1.44,1.44,0,0,1-.46-.38l8.58-1.3,6.45-1,10-1.52,4.62-.63,1.84-.25h6.18Z"/><path class="cls-1" d="M58.44,24.84A1.4,1.4,0,0,0,57.8,26v1.8H49.44a.08.08,0,0,1,0-.15l6.06-2.61,1.32-.57,1-.14a1.44,1.44,0,0,0,.46.38Z"/><path class="cls-1" d="M49.44,27.82h6v37.4c-.31,4.69-8.81,3.33-2.49.4,0-6.52-52-5.7-52-5.7V1s35.47.2,41.79,2.44c4.59,1.63,6.27,3.26,6.85,4a2.22,2.22,0,0,0,.94.72,2,2,0,0,0,.73.16l4.16.19V25.06l-6.06,2.61A.08.08,0,0,0,49.44,27.82Z"/><path class="cls-1" d="M5,8.21s39.86-1.63,43.49,6"/><path class="cls-1" d="M5,14.6s39.86-1.63,43.49,6"/><path class="cls-1" d="M14.25,21.89s31.39-1.64,34.25,6"/><path class="cls-1" d="M110.69,55.24h-15l.41-1.54.06-.23.25-.95c.27-.73.57-1.47.85-2.23.2-.55.41-1.1.6-1.66,1-3,1.69-6.27.62-9.78l-.09-.3-.53-1.14V37L97.6,37l-.48-1H111C115.72,42.55,110.69,55.24,110.69,55.24Z"/></g></g></svg>