<svg xmlns="http://www.w3.org/2000/svg" viewBox="0 0 111.17 97.94"><defs><style>.cls-1,.cls-2{fill:none;stroke:#e1ddc4;stroke-width:2px;}.cls-1{stroke-miterlimit:10;}.cls-2{stroke-linejoin:bevel;}</style></defs><g id="Layer_2" data-name="Layer 2"><g id="Layer_1-2" data-name="Layer 1"><polygon class="cls-1" points="36.16 74.43 88.23 84.35 101.73 13.49 49.66 3.56 43.2 37.48 40 54.24 40.05 54.23 41.8 53.66 55.76 52.33 56.95 56.78 44.92 61.53 39.43 65.83 37.56 67.06 36.16 74.43"/><polygon class="cls-2" points="49.66 3.56 101.73 13.49 88.23 84.35 92.99 81.66 106.47 10.91 54.4 0.98 49.66 3.56"/><line class="cls-1" x1="40" y1="54.24" x2="35.87" y2="55.59"/><path class="cls-1" d="M4.09,72H24.21l-.63-2.14-.34-1.15c-2.1-5-4.93-10.59-2.64-16.84l.84-1.64.78-1.52H3.73C-2.61,56.7,4.09,72,4.09,72Z"/><path class="cls-1" d="M23.24,68.67l.34,1.17H31.2a7.25,7.25,0,0,0,3.94-1.18l2.42-1.6,1.87-1.23,5.49-4.3,12-4.75-1.18-4.46-14,1.34-1.75.57h0l3.2-16.76H38.54L26.22,50l-.11,0-4.67-.13-.84,1.67C18.31,57.88,21.14,63.55,23.24,68.67Z"/><polyline class="cls-1" points="43.2 37.48 43.29 37.48 40.05 54.23 40.05 54.23"/><line class="cls-1" x1="21.44" y1="49.84" x2="21.43" y2="49.84"/><path class="cls-1" d="M67.85,49l3.29.54c-.4.41-.78.78-1.14,1.1a.94.94,0,0,1-1.33-.06.59.59,0,0,1-.13-.18C68.31,50,68.08,49.53,67.85,49Z"/><path class="cls-1" d="M79.44,36.29h0c-.37,2.24-2.46,5.87-4.82,9.08a1.23,1.23,0,0,0-.56-.24l-7.53-1.23a1.15,1.15,0,0,0-.49,0c-1.07-3.74-1.76-7.8-1.4-10a7.5,7.5,0,0,1,14.81,2.41Z"/><path class="cls-1" d="M75.11,46.58a1.28,1.28,0,0,1-.9,1,1.25,1.25,0,0,1,.58,1.3,1.27,1.27,0,0,1-1.48,1l-2.17-.35L67.85,49l-2.11-.34a1.27,1.27,0,0,1-.19-2.51,1.21,1.21,0,0,1-.51-1,1.79,1.79,0,0,1,0-.23,1.26,1.26,0,0,1,1-1,1.15,1.15,0,0,1,.49,0l7.53,1.23a1.23,1.23,0,0,1,.56.24A1.25,1.25,0,0,1,75.11,46.58Z"/><line class="cls-1" x1="65.92" y1="27.2" x2="62.88" y2="22.98"/><line class="cls-1" x1="61.75" y1="33.93" x2="56.63" y2="33.1"/><line class="cls-1" x1="82.18" y1="37.26" x2="87.3" y2="38.1"/><line class="cls-1" x1="80.36" y1="29.55" x2="84.58" y2="26.52"/><line class="cls-1" x1="73.63" y1="25.38" x2="74.46" y2="20.25"/></g></g></svg>