<svg xmlns="http://www.w3.org/2000/svg" viewBox="-30 0 124.17 110.94"><defs><style>.cls-1{fill:none;stroke:#e1ddc4;stroke-miterlimit:10;stroke-width:2px;}</style></defs><g id="Layer_2" data-name="Layer 2"><g id="Layer_1-2" data-name="Layer 1"><path class="cls-1" d="M70.05,52.08v3.16L41.77,72l.15-.51a5.45,5.45,0,0,1,2.11-3l3.14-2.2L54,60.42a1.74,1.74,0,0,0-2.13-2.75l-7.13,4.92-9.47,4.66,10.24-5.81L54,55.06a1.73,1.73,0,0,0,.31-2.48l-.12-.15A1.73,1.73,0,0,0,52,52L41.36,58l-11.55,6.6,9.75-6.34L50,52.06a1.74,1.74,0,0,0,.48-2.56l-.29-.38a1.74,1.74,0,0,0-2.07-.53L33.9,54.73,25.05,60.5l5.13-3.56,1.19-2.6L42.17,50a1.73,1.73,0,0,0,.7-2.71l-.3-.37-16.39,3.8L21.4,58.57,1,26.1V22.84L37.8,1.35Z"/><path class="cls-1" d="M21.26,103.82s12.63,5.42,19.2.3v-15l-2.6,1.31C32.7,92.32,28.12,90,24,88.33l-2.71-.78Z"/><path class="cls-1" d="M24,88.33V79.67a3.28,3.28,0,0,0-.18-1L18.87,64.92a3,3,0,0,1,.27-2.63l2.26-3.72,4.78-7.83,16.39-3.8.3.37a1.73,1.73,0,0,1-.7,2.71l-10.8,4.32-1.19,2.6L25.05,60.5l8.85-5.77,14.17-6.14a1.74,1.74,0,0,1,2.07.53l.29.38A1.74,1.74,0,0,1,50,52.06L39.56,58.25l-9.75,6.34L41.36,58,52,52a1.73,1.73,0,0,1,2.2.43l.12.15A1.73,1.73,0,0,1,54,55.06l-8.49,6.38L35.25,67.25l9.47-4.66,7.13-4.92A1.74,1.74,0,0,1,54,60.42l-6.81,5.89L44,68.51a5.45,5.45,0,0,0-2.11,3l-.15.51-.27,1a5.7,5.7,0,0,0-.2,1.79l.39,6.92a5.5,5.5,0,0,1-.72,3l-3.25,5.65"/><line class="cls-1" x1="69.74" y1="51.59" x2="53.73" y2="60.63"/><circle class="cls-1" cx="32.13" cy="31.49" r="11.28"/><path class="cls-1" d="M33.37,26.23,28.22,29.7c-1.84,1.23.22,4.55,2.18,3.23l4-2.68"/><path class="cls-1" d="M31.15,37.13l5.15-3.47c1.84-1.23-.22-4.55-2.18-3.24l-4,2.69"/><line class="cls-1" x1="28.55" y1="26.17" x2="29.8" y2="28.03"/><line class="cls-1" x1="34.79" y1="35.04" x2="35.98" y2="36.8"/></g></g></svg>