<svg xmlns="http://www.w3.org/2000/svg" viewBox="0 0 56.15 41.59"><g id="Layer_2" data-name="Layer 2"><g id="Layer_1-2" data-name="Layer 1"><path d="M51.24,39.19a6,6,0,0,1-1.1-3.94V27.19h0A4.77,4.77,0,0,0,50,26.14a5.81,5.81,0,0,0-.87-1.72,8.81,8.81,0,0,0-2.17-2.18A8.62,8.62,0,0,0,44,20.93a9.24,9.24,0,0,0-2.76-.26,7,7,0,0,1-3.62-2.13,6,6,0,0,1-1.1-3.94v-8h0a3.84,3.84,0,0,0-.16-1.06,5.81,5.81,0,0,0-.87-1.72,8.81,8.81,0,0,0-2.17-2.18A8.53,8.53,0,0,0,30.42.28,9.56,9.56,0,0,0,27.19.05,7.42,7.42,0,0,1,32.11,2.4,6,6,0,0,1,33.2,6.34V14.4h0a4,4,0,0,0,.16,1.06,6,6,0,0,0,.86,1.71,9,9,0,0,0,2.17,2.19,8.87,8.87,0,0,0,2.92,1.31,9.94,9.94,0,0,0,2.76.26,7,7,0,0,1,3.61,2.12A6,6,0,0,1,46.8,27v.2h0v8.06a6,6,0,0,1-1.1,3.94,7.15,7.15,0,0,1-4,2.22,7.14,7.14,0,0,1-4-2.22,6,6,0,0,1-1.1-3.94V27.19h0a3.82,3.82,0,0,0-.16-1.05,5.81,5.81,0,0,0-.87-1.72,8.64,8.64,0,0,0-2.17-2.18,8.53,8.53,0,0,0-2.91-1.31,9.24,9.24,0,0,0-2.76-.26A7,7,0,0,1,24,18.54,6,6,0,0,1,23,14.6v-8h0a3.84,3.84,0,0,0-.16-1.06,6,6,0,0,0-.86-1.72,9.16,9.16,0,0,0-2.17-2.18A8.67,8.67,0,0,0,16.82.28a9.35,9.35,0,0,0-2-.27H14.2a9.27,9.27,0,0,0-2,.27A8.59,8.59,0,0,0,9.25,1.59,8.37,8.37,0,0,0,7.7,3,8.76,8.76,0,0,0,6.14,1.59,8.59,8.59,0,0,0,3.22.28,9.5,9.5,0,0,0,0,.05,7.39,7.39,0,0,1,4.91,2.4,6,6,0,0,1,6,6.34V14.4H6a5,5,0,0,0,.16,1.06,5.76,5.76,0,0,0,.87,1.71,8.6,8.6,0,0,0,5.08,3.5,9.94,9.94,0,0,0,2.76.26,7,7,0,0,1,3.62,2.12A6,6,0,0,1,19.61,27v8.06h0a3.82,3.82,0,0,0,.16,1.05,5.81,5.81,0,0,0,.87,1.72A8.64,8.64,0,0,0,22.82,40a8.53,8.53,0,0,0,2.91,1.31,9.56,9.56,0,0,0,3.23.24A7.42,7.42,0,0,1,24,39.19,6,6,0,0,1,23,35.25V27.19h0a3.82,3.82,0,0,0-.16-1.05,6,6,0,0,0-.86-1.72,9,9,0,0,0-2.17-2.18,8.67,8.67,0,0,0-2.92-1.31,9.24,9.24,0,0,0-2.76-.26,7,7,0,0,1-3.61-2.13,6,6,0,0,1-1.1-3.94v-.2h0V6.34a6,6,0,0,1,1.1-3.94,7.15,7.15,0,0,1,4-2.22,7.14,7.14,0,0,1,4,2.22,6,6,0,0,1,1.1,3.94V14.4h0a4,4,0,0,0,.16,1.06,5.76,5.76,0,0,0,.87,1.71,8.6,8.6,0,0,0,5.08,3.5,9.94,9.94,0,0,0,2.76.26,7,7,0,0,1,3.62,2.12A6,6,0,0,1,33.2,27v8.06h0a3.82,3.82,0,0,0,.16,1.05,6,6,0,0,0,.86,1.72A9,9,0,0,0,36.41,40a8.67,8.67,0,0,0,2.92,1.31,9.35,9.35,0,0,0,2,.27H42a9.27,9.27,0,0,0,2-.27A8.59,8.59,0,0,0,46.9,40a8.37,8.37,0,0,0,1.55-1.41A8.76,8.76,0,0,0,50,40a8.59,8.59,0,0,0,2.92,1.31,9.51,9.51,0,0,0,3.22.24A7.4,7.4,0,0,1,51.24,39.19Z"/></g></g></svg>