<svg xmlns="http://www.w3.org/2000/svg" viewBox="0 0 111.17 97.94"><defs><style>.cls-1,.cls-2{fill:none;stroke:#e1ddc4;stroke-width:2px;}.cls-1{stroke-miterlimit:10;}.cls-2{stroke-linejoin:bevel;}</style></defs><g id="Layer_2" data-name="Layer 2"><g id="Layer_1-2" data-name="Layer 1"><rect class="cls-1" x="99.31" y="49.4" width="10.86" height="47.54"/><path class="cls-1" d="M94.64,49.4a16.08,16.08,0,0,0-8.9-10.65,17.31,17.31,0,0,0-2.76-1c-8.87-2.54-19.74,1.36-22.46,11.68H56V96.94H99.31V49.4Zm-32.29,0c1.91-8.17,10.31-11.72,17.87-10.65a17.08,17.08,0,0,1,2.75.61,13.74,13.74,0,0,1,9.83,10Z"/><path class="cls-1" d="M80.22,38.75a17.08,17.08,0,0,1,2.75.61,13.75,13.75,0,0,0-9.83,10H71.31A16,16,0,0,1,80.22,38.75Z"/><path class="cls-1" d="M105.43,49.4h-1.84c-1.91-8.17-10.3-11.72-17.85-10.65a17.31,17.31,0,0,0-2.76-1C91.84,35.18,102.7,39.08,105.43,49.4Z"/><polygon class="cls-1" points="14.65 27.46 33.8 55.64 72.14 29.57 52.99 1.4 34.64 13.87 25.57 20.04 25.59 20.05 26.65 20.59 33.6 26.33 32.12 28.89 24.49 25.59 20.04 25.05 18.63 24.75 14.65 27.46"/><polygon class="cls-2" points="52.99 1.4 72.14 29.57 33.8 55.64 37.19 56.58 75.47 30.55 56.32 2.38 52.99 1.4"/><line class="cls-1" x1="25.57" y1="20.04" x2="23.08" y2="18.77"/><path class="cls-1" d="M1.17,11.8l9.14,9.14L11,19.68l.37-.67c1.33-3.24,2.57-7.06,6.45-8.86L19,9.79l1-.34-8.4-8.4C5.08,1.79,1.17,11.8,1.17,11.8Z"/><path class="cls-1" d="M11.4,19l-.38.68,3.46,3.47a4.67,4.67,0,0,0,2.33,1.25l1.82.37,1.41.3,4.45.54,7.63,3.3,1.48-2.56-7-5.74-1.06-.54h0l9.07-6.17-2.12-2.11-11.27.07-.05,0L19.13,9.6,18,10C14.06,11.83,12.77,15.7,11.4,19Z"/><polyline class="cls-1" points="34.64 13.87 34.68 13.92 25.59 20.05 25.59 20.06"/><line class="cls-1" x1="19.13" y1="9.6" x2="19.13" y2="9.6"/></g></g></svg>