<svg xmlns="http://www.w3.org/2000/svg" viewBox="-30 0 121.17 107.94"><defs><style>.cls-1{fill:none;stroke:#e1ddc4;stroke-miterlimit:10;stroke-width:2px;}</style></defs><g id="Layer_2" data-name="Layer 2"><g id="Layer_1-2" data-name="Layer 1"><path class="cls-1" d="M48.42,91.16l-.28.07-.2,0-.81.22-1.89.72-1.41.51a13.21,13.21,0,0,1-8.33.53l-.25-.08-1-.45h-.05l-.51-4.11a6.19,6.19,0,0,1-1.53-3.35,98,98,0,0,1-.95-12.83,17.16,17.16,0,0,1,.27-3,.53.53,0,0,0,0-.13l-.29-3.5v0a.41.41,0,0,0-.05-.19L28.77,61l0-.07-.14-.45-1-3.15a2.07,2.07,0,0,1,3.6-1.9l1.57,2,1.1,1.42a.51.51,0,0,1,.09.16l1.77,6,0,.06h0l9.57-1.44a2.7,2.7,0,0,1,.49,1.82L44.27,81.47a.48.48,0,0,0,.11.35Z"/><path class="cls-1" d="M35.74,65.15a.49.49,0,0,0,.16.19l2.45,1.75"/><path class="cls-1" d="M26.18,73.68a.48.48,0,0,0-.69.16.5.5,0,0,0-.06.24.49.49,0,0,0,.09.28l2.37,3.32a.49.49,0,0,0,.56.17l1.18-.45a.49.49,0,0,0,.29-.58l-1.15-3.9a.47.47,0,0,1,.49-.61l2,.13"/><path class="cls-1" d="M29.77,66.54,27.3,73.7a.47.47,0,0,1-.72.24l-.4-.26-1.32-.88a.45.45,0,0,1-.2-.48l1-5.65"/><path class="cls-1" d="M49.46,90.88V103.7S38.65,108,33,103.93V92.15l.88.41.06.17h.32l1,.45.25.08a13.21,13.21,0,0,0,8.33-.53l1.41-.51,1.89-.72.81-.22.2,0,.28-.07Z"/><path class="cls-1" d="M53.84,62.43l-8.52,1.28-9.57,1.44h0l0-.06-1.77-6a.51.51,0,0,0-.09-.16l-1.1-1.42-1.57-2a2.07,2.07,0,0,0-3.6,1.9l1,3.15.14.45,0,.07,2.41,4.58a.41.41,0,0,1,.05.19v0l-5.61.84L10.27,69,1.14,8.24,44.07,1.13l.47,1.38L3,9.31l.22,1.6L43,4.94l2.19-.33Z"/><line class="cls-1" x1="42.96" y1="4.94" x2="42.44" y2="2.97"/></g></g></svg>