<svg xmlns="http://www.w3.org/2000/svg" viewBox="-30 0 111.17 97.94"><defs><style>.cls-1{fill:none;stroke:#e1ddc4;stroke-miterlimit:10;stroke-width:2px;}</style></defs><g id="Layer_2" data-name="Layer 2"><g id="Layer_1-2" data-name="Layer 1"><path class="cls-1" d="M30.74,78.18l-2.63.71a3,3,0,0,1-1.58,0L14.7,75.55C20.79,77.3,27,79.77,27,79.77"/><path class="cls-1" d="M42.57,83.41c-.15.4-.31.8-.47,1.19H36.58a9.2,9.2,0,0,0-2.94.49L31,86a6.38,6.38,0,0,1-2.74.3L26,86S6.82,77.35,3.9,77.27s-2.58-1.09-2.58-1.09-2-2.08,4.08-2.33c2.24-.09,5.75.68,9.3,1.7a.89.89,0,0,1-.55-1.29,2.22,2.22,0,0,1,2-1.19,2.19,2.19,0,0,1,.36,0l5.35.86a11.58,11.58,0,0,0,4.76-.22l2.06-.53a16.08,16.08,0,0,1,9.09.29l4.67,1.55.16.31.41.82A10.16,10.16,0,0,1,42.57,83.41Z"/><path class="cls-1" d="M52.62,88.16H40.88l.36-1.28.2-.68c.21-.53.44-1,.66-1.6.16-.39.32-.79.47-1.19A10.16,10.16,0,0,0,43,76.18l-.41-.82V75.1l-.16,0L42,74.3H52.83C56.53,79,52.62,88.16,52.62,88.16Z"/><polygon class="cls-1" points="42.57 75.1 42.57 75.36 42.41 75.05 42.57 75.1"/><polygon class="cls-1" points="11.87 65.04 51.79 59.04 43.82 6.08 5.44 11.85 5.24 10.38 42.46 2.43 42.03 1.17 3.5 9.4 11.87 65.04"/><line class="cls-1" x1="41.82" y1="6.38" x2="40.87" y2="2.77"/><path class="cls-1" d="M33.46,38,29,44.17l-6.21-4.49c-5.22-3.76-.72-10,4.5-6.2C31.05,28.23,37.26,32.73,33.46,38Z"/></g></g></svg>