<svg xmlns="http://www.w3.org/2000/svg" viewBox="0 0 584.52 243.86"><g id="Layer_2" data-name="Layer 2"><g id="Layer_1-2" data-name="Layer 1"><path d="M20,124.11V233.55l-7.61,8.67a3.66,3.66,0,0,1-.9.57,2.37,2.37,0,0,1-.9.17,1,1,0,0,1-1.06-1.15V131a2.21,2.21,0,0,0-.25-1.15c-.16-.27-.54-.38-1.14-.32h-7a1.53,1.53,0,0,1-.82-.33.71.71,0,0,1-.24-.49A.9.9,0,0,1,.29,128a2.39,2.39,0,0,1,.93-.41l15-4.41c.65-.22,1.15-.37,1.51-.45a4.32,4.32,0,0,1,.94-.12,1.16,1.16,0,0,1,.94.44A1.73,1.73,0,0,1,20,124.11Zm-1.56,61-.9-1.56q6.8-8.17,13.21-11.65a28.5,28.5,0,0,1,13.79-3.48A27.4,27.4,0,0,1,60,173,31.76,31.76,0,0,1,70.91,185.7a42,42,0,0,1,4,18.9,46.19,46.19,0,0,1-4.37,20.69,33.4,33.4,0,0,1-12,13.7,31.72,31.72,0,0,1-17.38,4.87,27.52,27.52,0,0,1-15.42-4.26,32.15,32.15,0,0,1-10.43-11.12l1.39-1.31A28.51,28.51,0,0,0,26,237.27a23.53,23.53,0,0,0,13.29,3.81,21.34,21.34,0,0,0,12.39-3.93q5.68-3.93,9.08-11.82t3.39-19.51q0-10.87-3.06-18.4a26.63,26.63,0,0,0-8.3-11.49,19.27,19.27,0,0,0-11.95-4,23.64,23.64,0,0,0-11.2,3.11A36.32,36.32,0,0,0,18.4,185.13Z"/><path d="M123.35,168.59a35.47,35.47,0,0,1,18.18,5.86,33.88,33.88,0,0,1,11.9,14.07,41,41,0,0,1,3.46,19.9,39.58,39.58,0,0,1-5.76,19.17,34,34,0,0,1-13.57,12.46,36.51,36.51,0,0,1-19,3.72A35.16,35.16,0,0,1,100.57,238a33.3,33.3,0,0,1-11.79-13.9,40.66,40.66,0,0,1-3.42-19.74A41.57,41.57,0,0,1,91,185a33.17,33.17,0,0,1,13.37-12.64A36.18,36.18,0,0,1,123.35,168.59Zm-2,73.15a20.19,20.19,0,0,0,12.8-4.06,26.88,26.88,0,0,0,8.57-12.08q3.09-7.92,3.2-19.19,0-11.52-3.06-19.44a26.12,26.12,0,0,0-8.72-12.06,23.27,23.27,0,0,0-13.38-4.36,20.16,20.16,0,0,0-13.1,4.12,26.75,26.75,0,0,0-8.42,12.18,55.34,55.34,0,0,0-3,19.12,50.87,50.87,0,0,0,3.08,19,27.68,27.68,0,0,0,8.81,12.32A22.33,22.33,0,0,0,121.39,241.74Z"/><path d="M155.3,168.52a35.36,35.36,0,0,1,18.48,4.83,33.88,33.88,0,0,1,12.68,13.37A41.06,41.06,0,0,1,191,206.39a39.49,39.49,0,0,1-4.66,19.47,34.18,34.18,0,0,1-12.84,13.21,36.6,36.6,0,0,1-18.81,4.79,35.2,35.2,0,0,1-18.25-4.75,33.35,33.35,0,0,1-12.55-13.21,40.58,40.58,0,0,1-4.54-19.51,41.62,41.62,0,0,1,4.5-19.67,33.28,33.28,0,0,1,12.63-13.37A36.12,36.12,0,0,1,155.3,168.52Zm1.06,73.2a20.18,20.18,0,0,0,12.7-4.38q5.38-4.29,8.27-12.29A54.88,54.88,0,0,0,180,205.79q-.3-11.52-3.55-19.36a26,26,0,0,0-9-11.84,23.19,23.19,0,0,0-13.48-4A20.26,20.26,0,0,0,141,175a26.79,26.79,0,0,0-8.1,12.39,55.26,55.26,0,0,0-2.51,19.2,50.71,50.71,0,0,0,3.55,18.91,27.65,27.65,0,0,0,9.12,12.09A22.25,22.25,0,0,0,156.36,241.72Z"/><path d="M194.94,242.14a1,1,0,0,1-.78-.25,1,1,0,0,1-.2-.65.9.9,0,0,1,.37-.66,1.64,1.64,0,0,1,1.1-.32l5.4-.82a3.87,3.87,0,0,0,1.76-1,2.19,2.19,0,0,0,.61-1.56V131a2.32,2.32,0,0,0-.24-1.15c-.17-.27-.52-.38-1.07-.32h-7.11a1.65,1.65,0,0,1-.78-.33.68.68,0,0,1-.29-.49A.87.87,0,0,1,194,128a3,3,0,0,1,.82-.41l15-4.41c.65-.22,1.16-.37,1.51-.45a4.14,4.14,0,0,1,.86-.12,1.36,1.36,0,0,1,1.11.44,1.72,1.72,0,0,1,.36,1.11V236.74a2.7,2.7,0,0,0,.57,1.76,3.05,3.05,0,0,0,1.81.94l5.31.82c.87.11,1.31.46,1.31,1.06s-.44.82-1.31.82Zm16.2-29.45,33.94-32.47q3-2.94,2.62-5t-3.85-2.58l-3.43-.57a3.89,3.89,0,0,1-.94-.33.68.68,0,0,1-.29-.65.71.71,0,0,1,.37-.69,1.9,1.9,0,0,1,.94-.21H264a2,2,0,0,1,1.1.25.76.76,0,0,1,.37.65.87.87,0,0,1-.37.69,3.28,3.28,0,0,1-1.43.46,24.71,24.71,0,0,0-8.06,2.57,34.68,34.68,0,0,0-8,5.93l-35.83,34Zm21.67-19.22,25.36,41.06a11.9,11.9,0,0,0,3.72,4,15.57,15.57,0,0,0,5.11,1.63,3.33,3.33,0,0,1,1.11.5.81.81,0,0,1,.28.65.72.72,0,0,1-.28.57,1.44,1.44,0,0,1-.95.25H240.09a1.47,1.47,0,0,1-.86-.25.7.7,0,0,1-.37-.57.91.91,0,0,1,.33-.7,1.91,1.91,0,0,1,1.06-.36l3.85-.49q2.37-.17,2.82-1.56c.3-.92-.07-2.23-1.1-3.92l-20.45-33.7Z"/><path d="M298.16,170.32q-6.78,0-10.83,3.64a12.22,12.22,0,0,0-4.05,9.53,13.3,13.3,0,0,0,1.8,6.95,16.54,16.54,0,0,0,6.05,5.53,54.83,54.83,0,0,0,11.53,4.7,58.45,58.45,0,0,1,14.28,6.05,20.86,20.86,0,0,1,7.52,7.61,20.3,20.3,0,0,1,2.25,9.65q0,9.17-6.34,14.48t-17.22,5.32a27.44,27.44,0,0,1-8-1,25.71,25.71,0,0,1-4.95-2,6.27,6.27,0,0,0-2.49-1,3.35,3.35,0,0,0-2.13,1l-2.29,2a3.34,3.34,0,0,1-1.72,1,1,1,0,0,1-.74-.25,2.79,2.79,0,0,1-.49-1l-5.64-20.37a2.22,2.22,0,0,1-.12-1.23,1.09,1.09,0,0,1,.69-.81.78.78,0,0,1,.82,0,1.84,1.84,0,0,1,.74.77,47.65,47.65,0,0,0,7.32,12.27,23.88,23.88,0,0,0,8.58,6.55,26,26,0,0,0,10.19,2q7.68,0,12.1-3.72a12.42,12.42,0,0,0,4.42-10,13.49,13.49,0,0,0-1.76-6.83,15.67,15.67,0,0,0-6.21-5.56A59.52,59.52,0,0,0,299,210.73a52.23,52.23,0,0,1-13.37-5.6,20.22,20.22,0,0,1-7.4-7.61,20.89,20.89,0,0,1-2.29-9.85,18.07,18.07,0,0,1,10.42-17,25.55,25.55,0,0,1,11.5-2.45,19.81,19.81,0,0,1,7.6,1.31,31.65,31.65,0,0,1,5.2,2.61,6.68,6.68,0,0,0,2.82,1.31c.38,0,.89-.41,1.51-1.22s1.24-1.66,1.84-2.5,1.15-1.27,1.64-1.27a1.1,1.1,0,0,1,.61.29,1.65,1.65,0,0,1,.53,1l4.26,18.49a6,6,0,0,1,.08,1.63,1.06,1.06,0,0,1-.49.82c-.38.16-.67.15-.86,0a6.29,6.29,0,0,1-.7-.94Q317,179,310.68,174.66A22,22,0,0,0,298.16,170.32Z"/><path d="M343.31,173.27l-7.11-1.15a3.21,3.21,0,0,1-1.19-.49.81.81,0,0,1-.29-.65.7.7,0,0,1,.29-.66,1.48,1.48,0,0,1,.7-.16h7.11a4,4,0,0,0,2-.37,2.59,2.59,0,0,0,1.07-1.27L352.72,155a4.93,4.93,0,0,1,.9-1,1.29,1.29,0,0,1,.82-.33,1,1,0,0,1,.82.33,1.48,1.48,0,0,1,.24.9V227q0,5.9,2.41,8.8a8.11,8.11,0,0,0,6.59,2.9,10.88,10.88,0,0,0,3.64-.53,8.43,8.43,0,0,0,2.65-1.47,14.13,14.13,0,0,0,2.13-2.17,25.37,25.37,0,0,0,1.8-2.53.55.55,0,0,1,.66-.05c.16.14.21.43.16.86a15.17,15.17,0,0,1-3,5.61,14,14,0,0,1-4.91,3.64,16.14,16.14,0,0,1-6.67,1.31q-7.2,0-11.45-3.64t-4.25-11.17V175.8a3.24,3.24,0,0,0-.37-1.71A2.35,2.35,0,0,0,343.31,173.27Zm7.85-.9.09-2.21h22.82a1.66,1.66,0,0,1,.9.21.67.67,0,0,1,.32.61,1.15,1.15,0,0,1-.65,1,3.84,3.84,0,0,1-1.88.37Z"/><path d="M419.06,168.52a35.38,35.38,0,0,1,18.48,4.83,34,34,0,0,1,12.68,13.37,41.06,41.06,0,0,1,4.58,19.67,39.6,39.6,0,0,1-4.66,19.47,34.18,34.18,0,0,1-12.84,13.21,36.61,36.61,0,0,1-18.82,4.79,35.19,35.19,0,0,1-18.24-4.75,33.28,33.28,0,0,1-12.55-13.21,40.58,40.58,0,0,1-4.54-19.51,41.62,41.62,0,0,1,4.5-19.67,33.21,33.21,0,0,1,12.63-13.37A36.12,36.12,0,0,1,419.06,168.52Zm-.62,73.22A20.17,20.17,0,0,0,431.33,238a26.92,26.92,0,0,0,8.84-11.88q3.25-7.86,3.62-19.12.25-11.52-2.63-19.5a26,26,0,0,0-8.45-12.25,23.08,23.08,0,0,0-13.28-4.65,20.11,20.11,0,0,0-13.19,3.82,26.68,26.68,0,0,0-8.68,12,55.38,55.38,0,0,0-3.42,19,50.69,50.69,0,0,0,2.66,19.06A27.48,27.48,0,0,0,405.34,237,22.3,22.3,0,0,0,418.44,241.74Z"/><path d="M484.25,170.81v65.77a2.42,2.42,0,0,0,.65,1.75,3.52,3.52,0,0,0,2,.95l8,.89a3,3,0,0,1,1.06.41.8.8,0,0,1,.33.66.77.77,0,0,1-.33.65,1.57,1.57,0,0,1-1,.25H465.84a1.63,1.63,0,0,1-.94-.25.76.76,0,0,1-.37-.65.94.94,0,0,1,.37-.66,1.55,1.55,0,0,1,1-.32l5.47-.82a3.07,3.07,0,0,0,1.8-.9,2.42,2.42,0,0,0,.58-1.64V177.44a2.3,2.3,0,0,0-.21-1.06c-.14-.28-.48-.44-1-.5h-7.28a1.69,1.69,0,0,1-.7-.28.57.57,0,0,1-.28-.45.79.79,0,0,1,.28-.65,3.42,3.42,0,0,1,.86-.5l15.05-4.09a9.21,9.21,0,0,1,1.6-.49,6.51,6.51,0,0,1,.86-.08,1.13,1.13,0,0,1,.9.37A2.07,2.07,0,0,1,484.25,170.81ZM483,203.28q0-11.35,3.15-19.09t8.06-11.74a16,16,0,0,1,10.22-4q6,0,9.28,3.4a12.3,12.3,0,0,1,3.23,8.87,8.24,8.24,0,0,1-1.63,5.56,5.26,5.26,0,0,1-4.17,1.88,5,5,0,0,1-3.72-1.47,5.94,5.94,0,0,1-1.44-4.33l-.08-2.21c0-2.18-.44-3.74-1.31-4.66s-2.37-1.39-4.5-1.39q-3.75,0-7.4,3.31t-6,9.86a47.07,47.07,0,0,0-2.41,16.19Z"/><path d="M584.52,197.31a2.34,2.34,0,0,1-.86,1.93,3.47,3.47,0,0,1-2.25.69H530.29v-1.88l41.26-1.31c1.25,0,2.41,0,2.41-1.21,0-8.24-1.88-13.87-5.18-18.34a15.38,15.38,0,0,0-13-6.7,18.84,18.84,0,0,0-12.06,3.92,24.78,24.78,0,0,0-7.61,11.13,48.85,48.85,0,0,0-2.65,16.93q0,16.77,7.52,25.8a24.23,24.23,0,0,0,19.55,9,22.42,22.42,0,0,0,14.23-4.74A20.5,20.5,0,0,0,582.4,220a1.56,1.56,0,0,1,.41-.78.88.88,0,0,1,.57-.2.71.71,0,0,1,.61.29,1.61,1.61,0,0,1,.21.94,25.68,25.68,0,0,1-4.71,12,27.39,27.39,0,0,1-10,8.51,29.71,29.71,0,0,1-13.7,3.11A32.06,32.06,0,0,1,539,239.48,29.36,29.36,0,0,1,527.68,227q-4-8.08-4-19.22a46.64,46.64,0,0,1,4.13-20,34.73,34.73,0,0,1,11.66-14.11,29.68,29.68,0,0,1,17.5-5.28,27.45,27.45,0,0,1,14.52,3.76,26,26,0,0,1,9.61,10.27A31.45,31.45,0,0,1,584.52,197.31Z"/><path d="M431.15,206.14c-8.86,1.7-10.24,3.08-11.94,11.94-1.7-8.86-3.08-10.24-11.94-11.94,8.86-1.7,10.24-3.08,11.94-11.94.85,4.43,1.62,7,3.29,8.65S426.72,205.29,431.15,206.14Z"/><path d="M73.39,51.44A31.72,31.72,0,0,0,69.5,40.87a18.42,18.42,0,0,0-7.19-6.77,23,23,0,0,0-10.93-2.38H32.73c-4.29,0-10.21.28-14.21.28h-9V51c.19,4.19,0,9.15,0,14.21v45.4H19.7V67.33q0-13.69,4-20C26.4,43.16,28.54,42,42.05,42s15.65,1.16,18.32,5.32,4,10.88,4,20v73.28H74.59V65.21A72.49,72.49,0,0,0,73.39,51.44Z"/><path d="M99.29,140.61V30.52c0-6.39.23-11.52.23-16.52V0h36V9H115.31a5.79,5.79,0,0,0-5.8,5.78c0,4.81,0,10.65,0,15.44v2.39h67.05V40.7H109.47v99.91Zm-24.7,0h24.7v-8H74.59Z"/><path d="M182.38,136.47q-1.2.45-3.75,1.65a33.59,33.59,0,0,1-6.13,2.09,32.08,32.08,0,0,1-7.79.9,20.38,20.38,0,0,1-8.16-1.65,13.72,13.72,0,0,1-6.06-5c-1.5-2.25-2.25-10-2.25-13.34V18h10.18V118.25c.2,2.81,1.22,9.92,3.07,11.32a10.21,10.21,0,0,0,6.37,2.11,19.79,19.79,0,0,0,7.63-1.42,23,23,0,0,0,4.19-2Z"/></g></g></svg>