<svg xmlns="http://www.w3.org/2000/svg" viewBox="0 0 67 92"><defs><style>.cls-1,.cls-2{fill:none;}.cls-1,.cls-2,.cls-3{stroke:#000;stroke-width:2px;}.cls-1{stroke-miterlimit:10;}.cls-2,.cls-3{stroke-linecap:round;stroke-linejoin:round;}.cls-3{fill:#fff;}</style></defs><g id="Layer_2" data-name="Layer 2"><g id="Layer_1-2" data-name="Layer 1"><path class="cls-1" d="M6,80H66V1H5.86A4.87,4.87,0,0,0,1,5.86V84"/><path class="cls-2" d="M5,80H63a0,0,0,0,1,0,0v8a0,0,0,0,1,0,0H5a4,4,0,0,1-4-4v0a4,4,0,0,1,4-4Z"/><line class="cls-2" x1="6" y1="1" x2="6" y2="80"/><polygon class="cls-3" points="19 91 15.5 88.5 12 91 12 84 19 84 19 91"/><polygon class="cls-2" points="19 55.11 26.23 55.11 28.9 58.39 47.16 58.39 50.9 56.75 57.28 56.75 52.22 65.29 22.31 65.29 19 59.37 19 55.11"/><line class="cls-2" x1="16.37" y1="65.29" x2="59.91" y2="65.29"/><line class="cls-2" x1="23.6" y1="68.95" x2="49.54" y2="68.95"/><polygon class="cls-2" points="27.38 39.2 30.14 48.34 27.7 51.45 36.53 51.45 44.67 51.45 47 48.45 44.87 39.2 27.38 39.2"/><line class="cls-2" x1="36.53" y1="58.39" x2="36.53" y2="51.45"/><line class="cls-2" x1="36.57" y1="38.29" x2="36.57" y2="34.97"/><polygon class="cls-2" points="53.04 8 19.37 8 13.36 13.38 19.37 18.77 53.04 18.77 59.05 13.38 53.04 8"/></g></g></svg>