<svg xmlns="http://www.w3.org/2000/svg" viewBox="0 0 67 92"><defs><style>.cls-1,.cls-2,.cls-4{fill:none;}.cls-1,.cls-2,.cls-3{stroke:#000;}.cls-1,.cls-4{stroke-miterlimit:10;}.cls-1,.cls-2,.cls-3,.cls-4{stroke-width:2px;}.cls-2,.cls-3{stroke-linecap:round;stroke-linejoin:round;}.cls-3{fill:#fff;}.cls-4{stroke:#231f20;}</style></defs><g id="Layer_2" data-name="Layer 2"><g id="Layer_1-2" data-name="Layer 1"><path class="cls-1" d="M6,80H66V1H5.86A4.87,4.87,0,0,0,1,5.86V84"/><path class="cls-2" d="M5,80H63a0,0,0,0,1,0,0v8a0,0,0,0,1,0,0H5a4,4,0,0,1-4-4v0a4,4,0,0,1,4-4Z"/><line class="cls-2" x1="6" y1="1" x2="6" y2="80"/><rect class="cls-2" x="12" y="7" width="49" height="67"/><polygon class="cls-3" points="19 91 15.5 88.5 12 91 12 84 19 84 19 91"/><path class="cls-4" d="M49.75,35.74h4.42a0,0,0,0,1,0,0v0A15.19,15.19,0,0,1,39,50.94H34.56a0,0,0,0,1,0,0v0A15.19,15.19,0,0,1,49.75,35.74Z" transform="translate(88.74 86.68) rotate(-180)"/><path class="cls-4" d="M18.94,47.5H24.4a7.86,7.86,0,0,1,7.86,7.86v0a0,0,0,0,1,0,0H26.8a7.86,7.86,0,0,1-7.86-7.86v0A0,0,0,0,1,18.94,47.5Z" transform="translate(51.2 102.86) rotate(180)"/><path class="cls-4" d="M34.29,67.4s4.05-8.6,1-14.86c0,0,1.72,4.54-5.65,14.86Z"/><rect class="cls-4" x="19" y="12.27" width="35.12" height="14.64"/><line class="cls-4" x1="23.97" y1="17.03" x2="48.48" y2="17.03"/><line class="cls-4" x1="23.97" y1="22.31" x2="42.35" y2="22.31"/></g></g></svg>