<svg xmlns="http://www.w3.org/2000/svg" viewBox="0 0 70.6 86.22"><defs><style>.cls-1{fill:none;stroke:#231f20;stroke-miterlimit:10;stroke-width:2px;}</style></defs><g id="Layer_2" data-name="Layer 2"><g id="Layer_1-2" data-name="Layer 1"><path class="cls-1" d="M28,55.65H15.78a14.79,14.79,0,0,0,0,29.57H69.6V77.83H15.78a7.4,7.4,0,0,1,0-14.79H69.6V55.65"/><polyline class="cls-1" points="66.43 63.04 66.43 70.43 66.43 77.83"/><path class="cls-1" d="M69.6,55.65V49.94H28A5.72,5.72,0,0,1,28,38.5H69.6V32.79H28a11.43,11.43,0,0,0,0,22.86Z"/><polyline class="cls-1" points="67.15 38.5 67.15 42.33 67.15 46.29 67.15 49.94"/><line class="cls-1" x1="30.36" y1="42.33" x2="67.15" y2="42.33"/><line class="cls-1" x1="55.91" y1="70.43" x2="66.43" y2="70.43"/><line class="cls-1" x1="16.53" y1="70.43" x2="41.6" y2="70.43"/><line class="cls-1" x1="33.56" y1="46.29" x2="67.15" y2="46.29"/><polygon class="cls-1" points="55.91 70.43 55.91 76.26 48.75 75.01 41.6 76.26 41.6 70.43 55.91 70.43"/><polyline class="cls-1" points="1 70.43 1 1.61 43.07 1.61 50.98 9.59 50.98 32.79"/><rect class="cls-1" x="7.26" y="7.88" width="14.18" height="14.17"/><line class="cls-1" x1="7.26" y1="28" x2="43.07" y2="28"/><polyline class="cls-1" points="67.15 32.79 67.15 9.71 67.12 9.65 63.56 2.29 59.97 9.65 59.97 32.57"/><line class="cls-1" x1="63.56" y1="12.91" x2="63.56" y2="32.79"/><polyline class="cls-1" points="59.97 9.65 67.12 9.65 67.15 9.65"/></g></g></svg>