<svg xmlns="http://www.w3.org/2000/svg" viewBox="0 0 67 94"><defs><style>.cls-1,.cls-2,.cls-3{fill:none;stroke:#000;stroke-width:2px;}.cls-1{stroke-miterlimit:10;}.cls-2{stroke-linecap:round;}.cls-2,.cls-3{stroke-linejoin:round;}</style></defs><g id="Layer_2" data-name="Layer 2"><g id="Layer_1-2" data-name="Layer 1"><path class="cls-1" d="M6,74.29H66V1H5.86A4.7,4.7,0,0,0,1,5.51V78"/><path class="cls-2" d="M5,75H63a0,0,0,0,1,0,0V93a0,0,0,0,1,0,0H5a4,4,0,0,1-4-4V79a4,4,0,0,1,4-4Z"/><line class="cls-2" x1="6" y1="1" x2="6" y2="74"/><line class="cls-2" x1="6" y1="81" x2="63" y2="81"/><line class="cls-2" x1="6" y1="87" x2="63" y2="87"/><rect class="cls-2" x="15.3" y="61.78" width="40.78" height="6.16"/><line class="cls-2" x1="18.27" y1="42.82" x2="18.27" y2="60.87"/><line class="cls-2" x1="25.27" y1="42.82" x2="25.27" y2="60.87"/><line class="cls-2" x1="32.27" y1="42.82" x2="32.27" y2="60.87"/><line class="cls-2" x1="39.27" y1="42.82" x2="39.27" y2="60.87"/><line class="cls-2" x1="46.27" y1="42.82" x2="46.27" y2="60.87"/><line class="cls-2" x1="53.27" y1="42.82" x2="53.27" y2="60.87"/><polygon class="cls-2" points="35.69 33.84 15.3 39.69 15.3 42.92 56.08 42.76 56.08 39.86 35.69 33.84"/><rect class="cls-2" x="15.3" y="15.49" width="40.78" height="10.89"/><line class="cls-3" x1="25.62" y1="9.36" x2="45.77" y2="9.36"/></g></g></svg>