<svg xmlns="http://www.w3.org/2000/svg" viewBox="0 0 67 89"><defs><style>.cls-1,.cls-2{fill:none;stroke:#000;stroke-width:2px;}.cls-1{stroke-miterlimit:10;}.cls-2{stroke-linecap:round;stroke-linejoin:round;}</style></defs><g id="Layer_2" data-name="Layer 2"><g id="Layer_1-2" data-name="Layer 1"><path class="cls-1" d="M63,80h3V1H5.86A4.87,4.87,0,0,0,1,5.86V84"/><path class="cls-2" d="M1,84a4,4,0,0,1,4-4H63v8H5a4,4,0,0,1-4-4Z"/><line class="cls-2" x1="6" y1="75" x2="6" y2="6"/><path class="cls-1" d="M21,49.7c.08-.15.17-.29.24-.42.49-.83.86-1.37,1-1.52C30,36.36,45.87,33,48,36c1.86,2.71-6.77,11.24-5,13.09,1.34,1.37,6.29-3,8.58-1.35s1.23,8.83-2.26,13.54c-2.19,3-4.49,4.24-8.17,5.67"/><path class="cls-1" d="M37.14,69h-.06c-7,1.42-14.74.46-17.46-3.62-2.22-3.32-1.12-8,.43-11.71l.17-.39"/><path class="cls-1" d="M21.27,49.28c-1.85-.07-3.31,0-3.31,0l2.09,4.35,1,2.09s2.1,3.79,4.41,2.74a6.91,6.91,0,0,0,2-1.37c1.47-1.45,2.39-3.58,1.2-5.57C27.61,49.86,24,49.39,21.27,49.28Z"/><path class="cls-1" d="M41.12,67l4,4.67a1.6,1.6,0,0,1-2.26,2.25L37.08,69,25.53,59.11l1.95-1.94,2.82-2.83Z"/><rect class="cls-1" x="15.35" y="1.46" width="41.96" height="19.13"/><line class="cls-1" x1="23.21" y1="7.46" x2="49.45" y2="7.46"/><line class="cls-1" x1="23.21" y1="13.79" x2="49.45" y2="13.79"/></g></g></svg>