<svg xmlns="http://www.w3.org/2000/svg" viewBox="0 0 67 89"><defs><style>.cls-1,.cls-2{fill:none;stroke:#000;stroke-width:2px;}.cls-1{stroke-miterlimit:10;}.cls-2{stroke-linecap:round;stroke-linejoin:round;}</style></defs><g id="Layer_2" data-name="Layer 2"><g id="Layer_1-2" data-name="Layer 1"><path class="cls-1" d="M6,80H66V1H5.86A4.87,4.87,0,0,0,1,5.86V84"/><path class="cls-2" d="M5,80H63a0,0,0,0,1,0,0v8a0,0,0,0,1,0,0H5a4,4,0,0,1-4-4v0A4,4,0,0,1,5,80Z"/><line class="cls-2" x1="6" y1="1" x2="6" y2="80"/><rect class="cls-2" x="12" y="7" width="49" height="67"/><circle class="cls-1" cx="36.23" cy="31.2" r="4.55"/><path class="cls-1" d="M29.08,45.55v18a2.1,2.1,0,0,1-2.17,1.9h0a2,2,0,0,1-1.83-2.1V49.73c0-7.17,5.08-13,11.35-13h.89"/><polyline class="cls-1" points="44.32 62.55 44.32 73.55 29.08 73.55 29.08 62.55"/><line class="cls-1" x1="36.7" y1="69.65" x2="36.7" y2="73.85"/><path class="cls-1" d="M44.32,45.55v18a2.1,2.1,0,0,0,2.17,1.9h0a2,2,0,0,0,1.83-2.1V49.73c0-7.17-5.08-13-11.35-13h-.89"/><line class="cls-1" x1="22.4" y1="15.43" x2="50.89" y2="15.43"/><line class="cls-1" x1="28.97" y1="21.04" x2="44.32" y2="21.04"/></g></g></svg>