<svg xmlns="http://www.w3.org/2000/svg" viewBox="0 0 67 94"><defs><style>.cls-1,.cls-2{fill:none;stroke:#000;stroke-width:2px;}.cls-1{stroke-miterlimit:10;}.cls-2{stroke-linecap:round;stroke-linejoin:round;}</style></defs><g id="Layer_2" data-name="Layer 2"><g id="Layer_1-2" data-name="Layer 1"><path class="cls-1" d="M6,74.29H66V1H5.86A4.7,4.7,0,0,0,1,5.51V78"/><path class="cls-2" d="M5,75H63a0,0,0,0,1,0,0V93a0,0,0,0,1,0,0H5a4,4,0,0,1-4-4V79a4,4,0,0,1,4-4Z"/><line class="cls-2" x1="6" y1="1" x2="6" y2="74"/><line class="cls-2" x1="6" y1="81" x2="63" y2="81"/><line class="cls-2" x1="6" y1="87" x2="63" y2="87"/><circle class="cls-1" cx="36.09" cy="22.05" r="11.28"/><path class="cls-1" d="M40.06,18.38H33.85c-2.22,0-2.36,3.9,0,3.9h4.81"/><path class="cls-1" d="M32.13,26.18h6.21c2.21,0,2.36-3.9,0-3.9H33.53"/><line class="cls-1" x1="36.09" y1="15.64" x2="36.09" y2="17.88"/><line class="cls-1" x1="36.32" y1="26.48" x2="36.32" y2="28.6"/><polyline class="cls-1" points="13.98 60.06 27.55 47.85 33.33 54.85 48.82 38.68"/><polyline class="cls-1" points="13.5 26.48 13.5 66.94 58.52 66.94"/><polyline class="cls-1" points="42.44 38.39 48.82 38.39 48.82 44.89"/></g></g></svg>