<svg xmlns="http://www.w3.org/2000/svg" viewBox="0 0 74 85"><defs><style>.cls-1,.cls-2{fill:none;}.cls-1,.cls-2,.cls-3{stroke:#000;stroke-width:2px;}.cls-1{stroke-miterlimit:10;}.cls-2,.cls-3{stroke-linecap:round;stroke-linejoin:round;}.cls-3{fill:#fff;}</style></defs><g id="Layer_2" data-name="Layer 2"><g id="Layer_1-2" data-name="Layer 1"><path class="cls-1" d="M5.58,1H68.42A4.58,4.58,0,0,1,73,5.58V67.92a4.58,4.58,0,0,1-4.58,4.58H1a0,0,0,0,1,0,0V5.58A4.58,4.58,0,0,1,5.58,1Z"/><path class="cls-2" d="M1,73H71a0,0,0,0,1,0,0v8a0,0,0,0,1,0,0H5a4,4,0,0,1-4-4V73A0,0,0,0,1,1,73Z"/><line class="cls-2" x1="5" y1="7" x2="5" y2="67"/><rect class="cls-2" x="10" y="7" width="58" height="60" rx="3.51"/><polygon class="cls-3" points="18 84 14.5 81.5 11 84 11 77 18 77 18 84"/><polygon class="cls-1" points="39.23 24.45 42.08 30.22 48.46 31.15 43.84 35.65 44.93 42 39.23 39 33.52 42 34.61 35.65 30 31.15 36.38 30.22 39.23 24.45"/><line class="cls-1" x1="39.23" y1="39" x2="39.23" y2="58.98"/><rect class="cls-1" x="24.32" y="21.23" width="2.01" height="2.01" transform="translate(-8.31 24.42) rotate(-45)"/><rect class="cls-1" x="18.64" y="43.32" width="2.01" height="2.01" transform="translate(-25.59 26.87) rotate(-45)"/><rect class="cls-1" x="28.99" y="46.89" width="2.01" height="2.01" transform="translate(-25.08 35.24) rotate(-45)"/><rect class="cls-1" x="20.95" y="54.93" width="2.01" height="2.01" transform="translate(-33.12 31.91) rotate(-45)"/><rect class="cls-1" x="54.53" y="60.42" width="2.01" height="2.01" transform="translate(-27.17 57.26) rotate(-45)"/><rect class="cls-1" x="46.03" y="48.81" width="2.01" height="2.01" transform="translate(-21.44 47.85) rotate(-45)"/><rect class="cls-1" x="58.57" y="39.11" width="2.01" height="2.01" transform="translate(-10.91 53.88) rotate(-45)"/><rect class="cls-1" x="54.53" y="25.32" width="2.01" height="2.01" transform="translate(-2.35 46.98) rotate(-45)"/><rect class="cls-1" x="27.69" y="11.86" width="22.62" height="5.36" rx="2.68"/></g></g></svg>