<svg xmlns="http://www.w3.org/2000/svg" viewBox="0 0 67 92"><defs><style>.cls-1,.cls-2,.cls-3{fill:none;stroke:#000;stroke-width:2px;}.cls-1,.cls-3{stroke-miterlimit:10;}.cls-2,.cls-3{stroke-linecap:round;}.cls-2{stroke-linejoin:round;}</style></defs><g id="Layer_2" data-name="Layer 2"><g id="Layer_1-2" data-name="Layer 1"><path class="cls-1" d="M6,80H66V1H5.86A4.87,4.87,0,0,0,1,5.86V84"/><path class="cls-2" d="M5,80H63a0,0,0,0,1,0,0V91a0,0,0,0,1,0,0H5a4,4,0,0,1-4-4V84a4,4,0,0,1,4-4Z"/><line class="cls-2" x1="6" y1="74" x2="6" y2="9"/><path class="cls-2" d="M13.41,9H35.23a0,0,0,0,1,0,0V23.62A10.91,10.91,0,0,1,24.32,34.53h0A10.91,10.91,0,0,1,13.41,23.62V9A0,0,0,0,1,13.41,9Z"/><line class="cls-3" x1="20.36" y1="14.72" x2="20.36" y2="15.87"/><line class="cls-3" x1="28.27" y1="14.72" x2="28.27" y2="15.87"/><path class="cls-3" d="M20.36,20.35q4,3.25,7.91,0"/><path class="cls-2" d="M35.23,21.77H57a0,0,0,0,1,0,0V36.39A10.91,10.91,0,0,1,46.13,47.3h0A10.91,10.91,0,0,1,35.23,36.39V21.77A0,0,0,0,1,35.23,21.77Z"/><line class="cls-3" x1="42.18" y1="27.49" x2="42.18" y2="28.63"/><line class="cls-3" x1="50.09" y1="27.49" x2="50.09" y2="28.63"/><path class="cls-3" d="M50.09,34.74q-4-3.24-7.91,0"/><rect class="cls-3" x="13.41" y="58" width="43.64" height="16"/><line class="cls-1" x1="19.24" y1="63.23" x2="50.9" y2="63.23"/><line class="cls-1" x1="23.83" y1="68.59" x2="46.62" y2="68.59"/><line class="cls-1" x1="12.43" y1="54.17" x2="15.93" y2="54.17"/><line class="cls-1" x1="17.5" y1="54.17" x2="20.99" y2="54.17"/><line class="cls-1" x1="22.64" y1="54.17" x2="26.13" y2="54.17"/></g></g></svg>