<svg xmlns="http://www.w3.org/2000/svg" viewBox="0 0 67 94"><defs><style>.cls-1,.cls-2{fill:none;stroke:#000;stroke-width:2px;}.cls-1{stroke-miterlimit:10;}.cls-2{stroke-linecap:round;stroke-linejoin:round;}</style></defs><g id="Layer_2" data-name="Layer 2"><g id="Layer_1-2" data-name="Layer 1"><path class="cls-1" d="M6,74.29H66V1H5.86A4.7,4.7,0,0,0,1,5.51V78"/><path class="cls-2" d="M5,75H63a0,0,0,0,1,0,0V93a0,0,0,0,1,0,0H5a4,4,0,0,1-4-4V79a4,4,0,0,1,4-4Z"/><line class="cls-2" x1="6" y1="1" x2="6" y2="74"/><path class="cls-2" d="M31.44,25.67C33.13,16,34.56,7.61,34.65,7H12V25.8C18.35,25.8,24.61,25.67,31.44,25.67Z"/><path class="cls-2" d="M61,25.4V7H37.23c-.08.58-1.48,8.94-3.15,18.59C34.61,25.58,52.56,25.39,61,25.4Z"/><rect class="cls-2" x="12" y="28.71" width="19.04" height="9.83"/><rect class="cls-2" x="33.5" y="28.71" width="27.5" height="9.83"/><rect class="cls-2" x="12" y="41.22" width="49" height="9.19"/><line class="cls-2" x1="6" y1="81" x2="63" y2="81"/><line class="cls-2" x1="6" y1="87" x2="63" y2="87"/><line class="cls-1" x1="11.84" y1="61.35" x2="61" y2="61.35"/><line class="cls-1" x1="19.24" y1="67.65" x2="53.66" y2="67.65"/></g></g></svg>