<svg xmlns="http://www.w3.org/2000/svg" viewBox="0 0 67 89"><defs><style>.cls-1,.cls-2,.cls-3{fill:none;}.cls-1,.cls-4{stroke:#231f20;}.cls-1,.cls-2,.cls-4{stroke-miterlimit:10;}.cls-1,.cls-2,.cls-3,.cls-4{stroke-width:2px;}.cls-2,.cls-3{stroke:#000;}.cls-3{stroke-linecap:round;stroke-linejoin:round;}.cls-4{fill:#fff;}</style></defs><g id="Layer_2" data-name="Layer 2"><g id="Layer_1-2" data-name="Layer 1"><path class="cls-1" d="M12,63.34H56.28A4.72,4.72,0,0,1,61,68.05v0a4.72,4.72,0,0,1-4.72,4.72H12a0,0,0,0,1,0,0V63.34A0,0,0,0,1,12,63.34Z"/><path class="cls-2" d="M6,80H66V1H5.86A4.87,4.87,0,0,0,1,5.86V84"/><path class="cls-3" d="M5,80H63a0,0,0,0,1,0,0v8a0,0,0,0,1,0,0H5a4,4,0,0,1-4-4v0a4,4,0,0,1,4-4Z"/><line class="cls-3" x1="6" y1="1" x2="6" y2="80"/><rect class="cls-3" x="12" y="7" width="49" height="49"/><path class="cls-1" d="M45.52,31c0,3.79-4.13,12.17-7,15.71a.94.94,0,0,1-1.48,0c-2.77-3.53-6.51-11.92-6.51-15.7a7.49,7.49,0,1,1,15,0Z"/><path class="cls-4" d="M42.19,43a1.26,1.26,0,0,0,.72-1.14,1.28,1.28,0,0,0-1.28-1.27H34a1.27,1.27,0,0,0-1.27,1.27A1.24,1.24,0,0,0,33.41,43,1.27,1.27,0,0,0,34,45.44h7.67A1.27,1.27,0,0,0,42.19,43Z"/><line class="cls-1" x1="30.72" y1="24.21" x2="27.05" y2="20.54"/><line class="cls-1" x1="27.69" y1="31.53" x2="22.5" y2="31.53"/><line class="cls-1" x1="48.39" y1="31.53" x2="53.58" y2="31.53"/><line class="cls-1" x1="45.35" y1="24.21" x2="49.03" y2="20.54"/><line class="cls-1" x1="38.04" y1="21.18" x2="38.04" y2="15.98"/></g></g></svg>