<svg xmlns="http://www.w3.org/2000/svg" viewBox="0 0 67 94"><defs><style>.cls-1,.cls-2,.cls-3{fill:none;stroke:#000;stroke-width:2px;}.cls-1{stroke-miterlimit:10;}.cls-2{stroke-linecap:round;}.cls-2,.cls-3{stroke-linejoin:round;}</style></defs><g id="Layer_2" data-name="Layer 2"><g id="Layer_1-2" data-name="Layer 1"><path class="cls-1" d="M6,74.29H66V1H5.86A4.7,4.7,0,0,0,1,5.51V78"/><path class="cls-2" d="M5,75H63a0,0,0,0,1,0,0V93a0,0,0,0,1,0,0H5a4,4,0,0,1-4-4V79a4,4,0,0,1,4-4Z"/><line class="cls-2" x1="6" y1="1" x2="6" y2="74"/><rect class="cls-2" x="16.47" y="7" width="39.08" height="8"/><line class="cls-2" x1="6" y1="81" x2="63" y2="81"/><line class="cls-2" x1="6" y1="87" x2="63" y2="87"/><polygon class="cls-2" points="49.1 57.29 23.9 57.29 23.9 21.37 42.68 21.37 49.1 27.79 49.1 57.29"/><polyline class="cls-3" points="46.6 25.29 55.55 25.29 55.55 64.36 16.47 64.36 16.47 25.29 23.9 25.29"/><line class="cls-3" x1="28.53" y1="30.81" x2="44.74" y2="30.81"/><line class="cls-3" x1="28.53" y1="35.09" x2="37.21" y2="35.09"/><line class="cls-3" x1="38.87" y1="35.09" x2="44.69" y2="35.09"/><line class="cls-3" x1="28.53" y1="39.36" x2="44.74" y2="39.36"/><line class="cls-3" x1="28.53" y1="43.64" x2="38.87" y2="43.64"/><line class="cls-3" x1="28.53" y1="47.92" x2="44.74" y2="47.92"/></g></g></svg>