<svg xmlns="http://www.w3.org/2000/svg" viewBox="0 0 67 92"><defs><style>.cls-1,.cls-2{fill:none;}.cls-1,.cls-2,.cls-3{stroke:#000;stroke-width:2px;}.cls-1{stroke-miterlimit:10;}.cls-2,.cls-3{stroke-linecap:round;stroke-linejoin:round;}.cls-3{fill:#fff;}</style></defs><g id="Layer_2" data-name="Layer 2"><g id="Layer_1-2" data-name="Layer 1"><path class="cls-1" d="M6,80H66V1H5.86A4.87,4.87,0,0,0,1,5.86V84"/><path class="cls-2" d="M5,80H63a0,0,0,0,1,0,0v8a0,0,0,0,1,0,0H5a4,4,0,0,1-4-4v0a4,4,0,0,1,4-4Z"/><line class="cls-2" x1="6" y1="1" x2="6" y2="80"/><rect class="cls-2" x="12" y="7" width="49" height="67"/><polygon class="cls-3" points="19 91 15.5 88.5 12 91 12 84 19 84 19 91"/><path class="cls-1" d="M21.59,73.6V60.28a9.76,9.76,0,0,1,9.73-9.73H41.68a9.76,9.76,0,0,1,9.73,9.73V73.6"/><path class="cls-1" d="M42.07,39.8a6.73,6.73,0,1,1-10.86.09"/><path class="cls-1" d="M42.73,34.87v4.76h0a38.62,38.62,0,0,1-12.14,0h0V34.87"/><polygon class="cls-1" points="48.38 32.43 36.66 36.57 24.95 32.43 36.66 28.29 48.38 32.43"/><line class="cls-1" x1="49.74" y1="32.43" x2="49.74" y2="39.19"/><rect class="cls-1" x="21.59" y="13.32" width="29.82" height="8.51"/></g></g></svg>