<svg xmlns="http://www.w3.org/2000/svg" viewBox="0 0 67 92"><defs><style>.cls-1,.cls-2{fill:none;}.cls-1,.cls-2,.cls-3{stroke:#000;stroke-width:2px;}.cls-1{stroke-miterlimit:10;}.cls-2,.cls-3{stroke-linecap:round;stroke-linejoin:round;}.cls-3{fill:#fff;}</style></defs><g id="Layer_2" data-name="Layer 2"><g id="Layer_1-2" data-name="Layer 1"><path class="cls-1" d="M6,80H66V1H5.86A4.87,4.87,0,0,0,1,5.86V84"/><path class="cls-2" d="M5,80H63a0,0,0,0,1,0,0v8a0,0,0,0,1,0,0H5a4,4,0,0,1-4-4v0a4,4,0,0,1,4-4Z"/><line class="cls-2" x1="6" y1="75" x2="6" y2="6"/><polygon class="cls-3" points="20 91 16.5 88.5 13 91 13 84 20 84 20 91"/><polyline class="cls-1" points="53.14 51.92 53.14 74.56 19.86 74.56 19.86 51.92"/><polygon class="cls-1" points="19.02 53.45 16.45 50.38 36.5 33.61 56.55 50.38 53.98 53.45 36.5 38.82 19.02 53.45"/><rect class="cls-1" x="26.93" y="57.97" width="6.57" height="16.6"/><rect class="cls-1" x="39.18" y="57.97" width="7.53" height="7.53"/><rect class="cls-1" x="16.45" y="1" width="40.1" height="17.98"/><line class="cls-1" x1="24.97" y1="6" x2="47.59" y2="6"/><line class="cls-1" x1="29.05" y1="11.83" x2="43.69" y2="11.83"/></g></g></svg>