<svg xmlns="http://www.w3.org/2000/svg" viewBox="0 0 67 89"><defs><style>.cls-1,.cls-2{fill:none;stroke:#000;stroke-width:2px;}.cls-1{stroke-miterlimit:10;}.cls-2{stroke-linecap:round;stroke-linejoin:round;}</style></defs><g id="Layer_2" data-name="Layer 2"><g id="Layer_1-2" data-name="Layer 1"><path class="cls-1" d="M6,80H66V1H5.86A4.87,4.87,0,0,0,1,5.86V84"/><path class="cls-2" d="M5,80H63a0,0,0,0,1,0,0v8a0,0,0,0,1,0,0H5a4,4,0,0,1-4-4v0a4,4,0,0,1,4-4Z"/><line class="cls-2" x1="6" y1="1" x2="6" y2="80"/><rect class="cls-2" x="12" y="7" width="49" height="67"/><rect class="cls-1" x="21.78" y="56.03" width="5.33" height="9.94" transform="translate(45.27 -1.33) rotate(40.31)"/><rect class="cls-1" x="20.88" y="52.72" width="16.85" height="5.09" transform="matrix(0.76, 0.65, -0.65, 0.76, 42.71, -5.84)"/><polygon class="cls-1" points="36.54 58.07 25.43 48.63 42.8 28.16 53.66 26.62 53.8 37.72 36.54 58.07"/><line class="cls-1" x1="48.19" y1="33.07" x2="30.98" y2="53.35"/><path class="cls-1" d="M23.64,24.33l.78-.47a10.21,10.21,0,0,0,4.2-12.39H18.67a10.21,10.21,0,0,0,4.2,12.39Z"/><line class="cls-1" x1="33.65" y1="11.47" x2="54.72" y2="11.47"/><line class="cls-1" x1="33.65" y1="17.53" x2="48.41" y2="17.53"/><line class="cls-1" x1="39.91" y1="68.49" x2="54.72" y2="68.49"/></g></g></svg>