<svg xmlns="http://www.w3.org/2000/svg" viewBox="0 0 67 92"><defs><style>.cls-1,.cls-2,.cls-3{fill:none;stroke-width:2px;}.cls-1,.cls-2{stroke:#000;}.cls-1,.cls-3{stroke-miterlimit:10;}.cls-2{stroke-linecap:round;stroke-linejoin:round;}.cls-3{stroke:#231f20;}</style></defs><g id="Layer_2" data-name="Layer 2"><g id="Layer_1-2" data-name="Layer 1"><path class="cls-1" d="M6,80H66V1H5.86A4.87,4.87,0,0,0,1,5.86V84"/><path class="cls-2" d="M5,80H63a0,0,0,0,1,0,0V91a0,0,0,0,1,0,0H5a4,4,0,0,1-4-4V84a4,4,0,0,1,4-4Z"/><line class="cls-2" x1="6" y1="74" x2="6" y2="9"/><line class="cls-2" x1="6" y1="86" x2="63" y2="86"/><path class="cls-3" d="M37.18,42.14V69.48H19.73V42.14a10.19,10.19,0,0,1,5.67-9.48V19h6.11V32.66A8.7,8.7,0,0,1,34.63,35,11,11,0,0,1,37.18,42.14Z"/><rect class="cls-3" x="24.01" y="15.81" width="8.81" height="3.28"/><path class="cls-3" d="M58.05,49.27v1.28a15.05,15.05,0,0,1-13.28,15v8.11H41.2V65.5a15.06,15.06,0,0,1-13.28-15V49.27Z"/><line class="cls-3" x1="34.09" y1="73.62" x2="51.88" y2="73.62"/><line class="cls-3" x1="58.05" y1="9" x2="41.44" y2="9"/><line class="cls-3" x1="58.05" y1="15.81" x2="46.04" y2="15.81"/></g></g></svg>