<svg xmlns="http://www.w3.org/2000/svg" viewBox="0 0 67 94"><defs><style>.cls-1,.cls-2{fill:none;stroke:#000;stroke-width:2px;}.cls-1{stroke-miterlimit:10;}.cls-2{stroke-linecap:round;stroke-linejoin:round;}</style></defs><g id="Layer_2" data-name="Layer 2"><g id="Layer_1-2" data-name="Layer 1"><path class="cls-1" d="M6,74.29H66V1H5.86A4.7,4.7,0,0,0,1,5.51V78"/><path class="cls-2" d="M5,75H63a0,0,0,0,1,0,0V93a0,0,0,0,1,0,0H5a4,4,0,0,1-4-4V79a4,4,0,0,1,4-4Z"/><line class="cls-2" x1="6" y1="1" x2="6" y2="74"/><rect class="cls-2" x="12" y="7" width="49" height="49"/><line class="cls-2" x1="6" y1="81" x2="63" y2="81"/><line class="cls-2" x1="6" y1="87" x2="63" y2="87"/><path class="cls-1" d="M39.06,12.14H24.94a6.46,6.46,0,0,0-6.46,6.46V25c0,3.57,2.33,6.47,5.91,6.47h0v4.64l4.23-4.64H39.06A6.47,6.47,0,0,0,45.52,25V18.6A6.46,6.46,0,0,0,39.06,12.14Z"/><path d="M47.89,33.54a8.83,8.83,0,1,0,8.83,8.83A8.84,8.84,0,0,0,47.89,33.54Zm0,15.66a6.82,6.82,0,0,1-6.18-9.73h0a1.07,1.07,0,0,0,.46,1,.36.36,0,0,0,0,.11c.26,1.07,1.25,1.42,2.21,1.57a.9.9,0,0,0,.14.36,1.13,1.13,0,0,0,.25.29,1.63,1.63,0,0,0,0,1.21,1.94,1.94,0,0,0,.92.91c.2.1.41.16.61.26s.38.27.39.16h0a1.52,1.52,0,0,0,0,.21.67.67,0,0,0,.14.49,1.83,1.83,0,0,0-.31.68,1.55,1.55,0,0,0,1.51,1.95.82.82,0,0,0,.57-1.38c-.15-.17,0-.5.11-.65a2.4,2.4,0,0,1,1-.8,5.48,5.48,0,0,0,2.12-1.72c.46-.74.93-2.16-.05-2.7a6.4,6.4,0,0,0-1.44-.4c-.55-.13-1.11-.25-1.68-.35s-1.42-.23-2.14-.32c-.09,0-.18-.12-.28-.17a.81.81,0,0,0-.83.05h-.18a3.9,3.9,0,0,1-.81-.08.9.9,0,0,0,0-1c.64-.7,1.73-.79,2.36-1.52a1.65,1.65,0,0,0,.17-2,7.45,7.45,0,0,1,1-.07,7,7,0,0,1,1.52.18,1.36,1.36,0,0,0,.14,1,1.25,1.25,0,0,0,1,.61,1.91,1.91,0,0,0,.86,1.17,1.22,1.22,0,0,0,1.17.05.85.85,0,0,0,.28-.22.69.69,0,0,1,.11.13,1.7,1.7,0,0,1,.44.74.78.78,0,0,1-.16.62,1.91,1.91,0,0,0-.25,1,4.18,4.18,0,0,0,.57,1.58,1.79,1.79,0,0,1,.07.8,2.59,2.59,0,0,0,.22,1.2.58.58,0,0,0,.41.36A6.82,6.82,0,0,1,47.89,49.2Z"/><line class="cls-1" x1="24.15" y1="18.09" x2="39.97" y2="18.09"/><line class="cls-1" x1="24.09" y1="24.14" x2="39.91" y2="24.14"/></g></g></svg>