<svg xmlns="http://www.w3.org/2000/svg" viewBox="0 0 74 82"><defs><style>.cls-1,.cls-2,.cls-3{fill:none;stroke-width:2px;}.cls-1,.cls-2{stroke:#000;}.cls-1,.cls-3{stroke-miterlimit:10;}.cls-2{stroke-linecap:round;stroke-linejoin:round;}.cls-3{stroke:#231f20;}</style></defs><g id="Layer_2" data-name="Layer 2"><g id="Layer_1-2" data-name="Layer 1"><path class="cls-1" d="M5.58,1H68.42A4.58,4.58,0,0,1,73,5.58V67.92a4.58,4.58,0,0,1-4.58,4.58H1a0,0,0,0,1,0,0V5.58A4.58,4.58,0,0,1,5.58,1Z"/><path class="cls-2" d="M1,73H71a0,0,0,0,1,0,0v8a0,0,0,0,1,0,0H5a4,4,0,0,1-4-4V73A0,0,0,0,1,1,73Z"/><line class="cls-2" x1="5" y1="7" x2="5" y2="67"/><rect class="cls-2" x="10" y="7" width="58" height="60" rx="3.51"/><path class="cls-3" d="M53,22.77l-2.78,6.68H53v3.64a1.34,1.34,0,0,0,1.34,1.34h3.15V22.77Z"/><path class="cls-3" d="M57.39,41.82S51.82,41,49.78,44.4"/><path class="cls-3" d="M36.58,49s5.31-10.2,15.78-2"/><path class="cls-3" d="M32.91,45.49s3.85,0,4.92,1.76"/><path class="cls-3" d="M29.91,50.25s3.4,1.53,3-12.5"/><path class="cls-3" d="M57.39,58.14s-18.36,8-38.23-4.62c0,0,1.5-12.65,7.22-22.59l3.53-3.12"/><circle class="cls-3" cx="37.55" cy="31.06" r="8.29"/><circle class="cls-3" cx="37.55" cy="31.06" r="5.37"/><line class="cls-3" x1="19.16" y1="12.88" x2="57.46" y2="12.88"/></g></g></svg>