<svg xmlns="http://www.w3.org/2000/svg" viewBox="0 0 67 89"><defs><style>.cls-1,.cls-2{fill:none;stroke:#000;stroke-width:2px;}.cls-1{stroke-miterlimit:10;}.cls-2{stroke-linecap:round;stroke-linejoin:round;}</style></defs><g id="Layer_2" data-name="Layer 2"><g id="Layer_1-2" data-name="Layer 1"><path class="cls-1" d="M6,80H66V1H5.86A4.87,4.87,0,0,0,1,5.86V84"/><path class="cls-2" d="M5,80H63a0,0,0,0,1,0,0v8a0,0,0,0,1,0,0H5a4,4,0,0,1-4-4v0a4,4,0,0,1,4-4Z"/><line class="cls-2" x1="6" y1="1" x2="6" y2="80"/><rect class="cls-2" x="12" y="7" width="49" height="49"/><polygon class="cls-1" points="55.22 73.73 13.49 73.73 17.82 67.79 13.49 61.85 55.22 61.85 59.55 67.79 55.22 73.73"/><path class="cls-1" d="M38.83,29v2.15c4.77,1,8.37,5.61,8.37,11.12v4H26.47v-4c0-5.51,3.59-10.11,8.36-11.12V29c-4.77-1-8.36-5.61-8.36-11.12v-4H47.2v4C47.2,23.39,43.6,28,38.83,29Z"/><path class="cls-1" d="M32.43,39l-2.76,1.31a2.1,2.1,0,0,0,1.59,3.25H42.84c1.53,0,1.66-1.36.81-2.75l-7.33-2.15C34.43,38.09,33.57,38.7,32.43,39Z"/><rect class="cls-1" x="24.7" y="46.24" width="23.8" height="3.17"/><line class="cls-1" x1="24.03" y1="13.91" x2="49.3" y2="13.91"/></g></g></svg>