<svg xmlns="http://www.w3.org/2000/svg" viewBox="0 0 67 89"><defs><style>.cls-1,.cls-2,.cls-3{fill:none;stroke-width:2px;}.cls-1,.cls-2{stroke:#000;}.cls-1,.cls-3{stroke-miterlimit:10;}.cls-2{stroke-linecap:round;stroke-linejoin:round;}.cls-3{stroke:#231f20;}</style></defs><g id="Layer_2" data-name="Layer 2"><g id="Layer_1-2" data-name="Layer 1"><path class="cls-1" d="M6,80H66V1H5.86A4.87,4.87,0,0,0,1,5.86V84"/><path class="cls-2" d="M5,80H63a0,0,0,0,1,0,0v8a0,0,0,0,1,0,0H5a4,4,0,0,1-4-4v0A4,4,0,0,1,5,80Z"/><line class="cls-2" x1="6" y1="1" x2="6" y2="80"/><rect class="cls-2" x="12" y="7" width="49" height="67"/><path class="cls-3" d="M33,39.36a4.62,4.62,0,0,0-2.58,0A4,4,0,0,0,28.77,44s1,1.67,3.28.4S34.17,40.17,33,39.36Z"/><path class="cls-3" d="M34.13,49a7,7,0,0,1,1.36-2.18"/><path class="cls-3" d="M47.46,42.06a13.61,13.61,0,0,0,1.26-8.78c-1.09-4.53-6.21-8-13.23-8.09h.66c-7,.11-12.14,3.56-13.23,8.09a13.61,13.61,0,0,0,1.26,8.78"/><path class="cls-3" d="M46.37,40.4s3.44,6.42-3,8.09c0,0-.5,5.16-7.84,5.51h.66c-7.34-.35-7.83-5.51-7.83-5.51-6.49-1.67-3.05-8.09-3.05-8.09"/><path class="cls-3" d="M38.68,39.36a4.62,4.62,0,0,1,2.58,0A4,4,0,0,1,42.87,44s-1,1.67-3.27.4S37.47,40.17,38.68,39.36Z"/><path class="cls-3" d="M37.51,49a6.8,6.8,0,0,0-1.36-2.18"/><path class="cls-3" d="M25.69,64.8H45.6c0,3.32,8.17,2,3.07-2.93h0c5.1-4.95-3.07-6.26-3.07-2.95H26.22c0-3.31-8.17-2-3.07,3h0c-5.1,4.95,3.07,6.24,3.07,2.92H46.13"/><line class="cls-3" x1="21.48" y1="12.4" x2="50.61" y2="12.4"/><line class="cls-3" x1="24.8" y1="18.02" x2="47.28" y2="18.02"/></g></g></svg>