<svg xmlns="http://www.w3.org/2000/svg" viewBox="0 0 74 82"><defs><style>.cls-1,.cls-2{fill:none;stroke:#000;stroke-width:2px;}.cls-1{stroke-miterlimit:10;}.cls-2{stroke-linecap:round;stroke-linejoin:round;}</style></defs><g id="Layer_2" data-name="Layer 2"><g id="Layer_1-2" data-name="Layer 1"><line class="cls-1" x1="17.68" y1="13.47" x2="59.32" y2="13.47"/><line class="cls-1" x1="38.5" y1="26.3" x2="38.5" y2="23.3"/><line class="cls-1" x1="38.5" y1="33.21" x2="38.5" y2="55.65"/><rect class="cls-1" x="28.95" y="55.65" width="19.1" height="5.02"/><polygon class="cls-1" points="46.85 45.45 56.73 45.45 52.77 29.75 50.8 29.75 46.85 45.45"/><path class="cls-1" d="M50.67,45.45H52.9a6.41,6.41,0,0,1,6.41,6.41v0a0,0,0,0,1,0,0H44.26a0,0,0,0,1,0,0v0a6.41,6.41,0,0,1,6.41-6.41Z" transform="translate(103.57 97.31) rotate(180)"/><line class="cls-1" x1="52.77" y1="29.75" x2="41.96" y2="29.75"/><polygon class="cls-1" points="30.15 45.45 20.27 45.45 24.23 29.75 26.2 29.75 30.15 45.45"/><path class="cls-1" d="M17.68,45.45H32.74a0,0,0,0,1,0,0v0a6.41,6.41,0,0,1-6.41,6.41H24.1a6.41,6.41,0,0,1-6.41-6.41v0a0,0,0,0,1,0,0Z"/><line class="cls-1" x1="24.23" y1="29.75" x2="35.04" y2="29.75"/><circle class="cls-1" cx="38.5" cy="29.75" r="3.46"/><path class="cls-1" d="M5.58,1H68.42A4.58,4.58,0,0,1,73,5.58V67.92a4.58,4.58,0,0,1-4.58,4.58H1a0,0,0,0,1,0,0V5.58A4.58,4.58,0,0,1,5.58,1Z"/><path class="cls-2" d="M1,73H71a0,0,0,0,1,0,0v8a0,0,0,0,1,0,0H5a4,4,0,0,1-4-4V73A0,0,0,0,1,1,73Z"/><line class="cls-2" x1="5" y1="7" x2="5" y2="67"/><rect class="cls-2" x="10" y="7" width="58" height="60" rx="3.51"/></g></g></svg>