<svg xmlns="http://www.w3.org/2000/svg" viewBox="0 0 67 92"><defs><style>.cls-1,.cls-2{fill:none;stroke:#000;stroke-width:2px;}.cls-1{stroke-miterlimit:10;}.cls-2{stroke-linecap:round;stroke-linejoin:round;}</style></defs><g id="Layer_2" data-name="Layer 2"><g id="Layer_1-2" data-name="Layer 1"><line class="cls-1" x1="12.57" y1="73.94" x2="59.42" y2="73.94"/><rect class="cls-1" x="12.91" y="57.25" width="46.01" height="9.53" rx="4.77"/><line class="cls-1" x1="42.91" y1="10.01" x2="51.7" y2="10.01"/><line class="cls-1" x1="50.69" y1="17.79" x2="50.69" y2="9"/><line class="cls-1" x1="41.14" y1="19.56" x2="50.89" y2="9.81"/><line class="cls-1" x1="22.14" y1="17.79" x2="22.14" y2="9"/><line class="cls-1" x1="29.92" y1="10.01" x2="21.13" y2="10.01"/><line class="cls-1" x1="31.68" y1="19.56" x2="21.93" y2="9.81"/><line class="cls-1" x1="31.09" y1="12.75" x2="24.87" y2="18.96"/><line class="cls-1" x1="31.64" y1="40.98" x2="40.43" y2="40.98"/><line class="cls-1" x1="36.03" y1="31.53" x2="36.03" y2="45.32"/><circle class="cls-1" cx="36.18" cy="24.11" r="7.49"/><path class="cls-1" d="M6,80H66V1H5.86A4.87,4.87,0,0,0,1,5.86V84"/><path class="cls-2" d="M5,80H63a0,0,0,0,1,0,0V91a0,0,0,0,1,0,0H5a4,4,0,0,1-4-4V84a4,4,0,0,1,4-4Z"/><line class="cls-2" x1="6" y1="74" x2="6" y2="9"/><line class="cls-2" x1="6" y1="86" x2="63" y2="86"/></g></g></svg>