<svg xmlns="http://www.w3.org/2000/svg" viewBox="0 0 67 97.06"><defs><style>.cls-1,.cls-2,.cls-4{fill:none;}.cls-1,.cls-2,.cls-3,.cls-4{stroke:#000;stroke-width:2px;}.cls-1{stroke-miterlimit:10;}.cls-2,.cls-3{stroke-linecap:round;}.cls-2,.cls-3,.cls-4{stroke-linejoin:round;}.cls-3{fill:#fff;}</style></defs><g id="Layer_2" data-name="Layer 2"><g id="Layer_1-2" data-name="Layer 1"><path class="cls-1" d="M6,74.29H66V1H5.86A4.7,4.7,0,0,0,1,5.51V78"/><path class="cls-2" d="M5,75H63a0,0,0,0,1,0,0V93a0,0,0,0,1,0,0H5a4,4,0,0,1-4-4V79a4,4,0,0,1,4-4Z"/><line class="cls-2" x1="6" y1="1" x2="6" y2="74"/><line class="cls-2" x1="6" y1="81" x2="63" y2="81"/><line class="cls-2" x1="6" y1="87" x2="63" y2="87"/><rect class="cls-3" x="15.6" y="81" width="7.09" height="15.06"/><path class="cls-2" d="M31.36,39.5H24.27A3.33,3.33,0,0,1,21,36.17V30.8a29.23,29.23,0,0,1,13.73,0v5.37A3.33,3.33,0,0,1,31.36,39.5Z"/><path class="cls-2" d="M47.75,39.5H40.67a3.33,3.33,0,0,1-3.33-3.33V30.8a29.23,29.23,0,0,1,13.73,0v5.37A3.32,3.32,0,0,1,47.75,39.5Z"/><path class="cls-2" d="M34.68,31.53h0Z"/><rect class="cls-2" x="14" y="58.6" width="44.03" height="6.53"/><path class="cls-2" d="M15.27,46.68h8.46A11.92,11.92,0,0,1,35.65,58.6v0a0,0,0,0,1,0,0H15.27a0,0,0,0,1,0,0V46.68A0,0,0,0,1,15.27,46.68Z"/><path class="cls-2" d="M36,46.68H56.41a0,0,0,0,1,0,0v0A11.92,11.92,0,0,1,44.49,58.6H36a0,0,0,0,1,0,0V46.68A0,0,0,0,1,36,46.68Z" transform="translate(92.43 105.28) rotate(-180)"/><line class="cls-4" x1="14" y1="7.89" x2="58.02" y2="8.06"/><line class="cls-4" x1="19.96" y1="14.58" x2="52.07" y2="14.75"/></g></g></svg>