<svg xmlns="http://www.w3.org/2000/svg" viewBox="0 0 67 89"><defs><style>.cls-1,.cls-2,.cls-3,.cls-4{fill:none;stroke:#000;stroke-width:2px;}.cls-1{stroke-miterlimit:10;}.cls-2{stroke-linecap:round;}.cls-2,.cls-3,.cls-4{stroke-linejoin:round;}.cls-4{stroke-linecap:square;}</style></defs><g id="Layer_2" data-name="Layer 2"><g id="Layer_1-2" data-name="Layer 1"><path class="cls-1" d="M6,80H66V1H5.86A4.87,4.87,0,0,0,1,5.86V84"/><path class="cls-2" d="M5,80H63a0,0,0,0,1,0,0v8a0,0,0,0,1,0,0H5a4,4,0,0,1-4-4v0a4,4,0,0,1,4-4Z"/><path class="cls-2" d="M51.77,31.92s-15.26-2.6-23.49-5.37a19.87,19.87,0,0,1-4.09-1.77c-5.1-3.32-9.7-2.05-11.49,0s1.28,4.59,9.71,7.14S51.77,31.92,51.77,31.92Z"/><path class="cls-2" d="M25.65,24.61s4.29-6.28,11.25-4.3,7,4.62,6.76,9.12"/><path class="cls-2" d="M43.73,28.29s6.19-2.56,9.63-1.34,6.57,2.93,2.49,3.95l-4.08,1"/><path class="cls-2" d="M28.46,39.48s4.9,6.13,9,0h4.18s.11,5,2.68,7.53l2.18,23.42H20.71L22.42,47a14.11,14.11,0,0,0,2.29-7.53Z"/><polyline class="cls-3" points="12.44 26.76 7.5 26.76 7.5 8.08 60.58 8.08 60.58 26.76 53.36 26.95"/><line class="cls-4" x1="7.5" y1="41.78" x2="19.73" y2="41.78"/><line class="cls-4" x1="7.5" y1="46.21" x2="17.17" y2="46.21"/><line class="cls-4" x1="7.5" y1="50.63" x2="17.17" y2="50.63"/><line class="cls-4" x1="40.83" y1="54.95" x2="60.43" y2="54.95"/><line class="cls-4" x1="50.63" y1="59.38" x2="60.43" y2="59.38"/><line class="cls-4" x1="50.63" y1="63.81" x2="60.43" y2="63.81"/></g></g></svg>