<svg xmlns="http://www.w3.org/2000/svg" viewBox="0 0 67 92"><defs><style>.cls-1,.cls-2,.cls-4{fill:none;}.cls-1,.cls-2,.cls-3,.cls-4{stroke:#000;stroke-width:2px;}.cls-1{stroke-miterlimit:10;}.cls-2,.cls-3{stroke-linecap:round;}.cls-2,.cls-3,.cls-4{stroke-linejoin:round;}.cls-3{fill:#fff;}.cls-4{stroke-linecap:square;}</style></defs><g id="Layer_2" data-name="Layer 2"><g id="Layer_1-2" data-name="Layer 1"><path class="cls-1" d="M6,80H66V1H5.86A4.87,4.87,0,0,0,1,5.86V84"/><path class="cls-2" d="M5,80H63a0,0,0,0,1,0,0V91a0,0,0,0,1,0,0H5a4,4,0,0,1-4-4V84a4,4,0,0,1,4-4Z"/><line class="cls-2" x1="6" y1="79.19" x2="6" y2="1.92"/><line class="cls-2" x1="6" y1="86" x2="63" y2="86"/><path class="cls-2" d="M26.39,50.52,18.1,42.38a3.22,3.22,0,0,1-.88-1.51L14.94,32a3.27,3.27,0,0,1,1.53-3.65L18,27.5a3.28,3.28,0,0,1,3.93.5l6.52,6.4a3.28,3.28,0,0,1,.87,1.51l2.9,11.25Z"/><line class="cls-2" x1="27.76" y1="53.28" x2="34.71" y2="49.27"/><path class="cls-2" d="M27.76,53.28c5.11,8.84,12.06,4.83,7-4"/><path class="cls-2" d="M35.22,30.61l-8.29-8.14A3.25,3.25,0,0,1,26.05,21l-2.28-8.84A3.28,3.28,0,0,1,25.3,8.46l1.52-.87a3.25,3.25,0,0,1,3.92.5l6.52,6.39A3.32,3.32,0,0,1,38.13,16L41,27.25Z"/><line class="cls-2" x1="36.6" y1="33.37" x2="43.54" y2="29.35"/><path class="cls-2" d="M36.6,33.37c5.1,8.84,12,4.83,6.94-4"/><circle class="cls-3" cx="36.51" cy="44.66" r="10.82"/><rect class="cls-2" x="17.61" y="53.95" width="5.71" height="14.58" transform="translate(48.75 3.2) rotate(44.46)"/><line class="cls-2" x1="28.93" y1="52.39" x2="25.46" y2="55.93"/><path class="cls-2" d="M31.24,65.41H55.93a4.34,4.34,0,0,1,4.34,4.34v0a4.34,4.34,0,0,1-4.34,4.34H31.24a0,0,0,0,1,0,0V65.41A0,0,0,0,1,31.24,65.41Z"/><line class="cls-4" x1="44.1" y1="7.87" x2="60.27" y2="7.87"/></g></g></svg>