<svg xmlns="http://www.w3.org/2000/svg" viewBox="0 0 74 85"><defs><style>.cls-1,.cls-2,.cls-4{fill:none;}.cls-1,.cls-2,.cls-3,.cls-4{stroke:#000;stroke-width:2px;}.cls-1{stroke-miterlimit:10;}.cls-2,.cls-3{stroke-linecap:round;}.cls-2,.cls-3,.cls-4{stroke-linejoin:round;}.cls-3{fill:#fff;}</style></defs><g id="Layer_2" data-name="Layer 2"><g id="Layer_1-2" data-name="Layer 1"><path class="cls-1" d="M5.58,1H68.42A4.58,4.58,0,0,1,73,5.58V67.92a4.58,4.58,0,0,1-4.58,4.58H1a0,0,0,0,1,0,0V5.58A4.58,4.58,0,0,1,5.58,1Z"/><path class="cls-2" d="M1,73H71a0,0,0,0,1,0,0v8a0,0,0,0,1,0,0H5a4,4,0,0,1-4-4V73a0,0,0,0,1,0,0Z"/><line class="cls-2" x1="5" y1="7" x2="5" y2="67"/><polygon class="cls-3" points="18 84 14.5 81.5 11 84 11 77 18 77 18 84"/><path class="cls-2" d="M18,37.05C24.26,26.83,44.35,15,44.35,15"/><path class="cls-2" d="M32.14,14.44H51.81a0,0,0,0,1,0,0v0A11.75,11.75,0,0,1,40.06,26.19H20.39a0,0,0,0,1,0,0v0A11.75,11.75,0,0,1,32.14,14.44Z" transform="translate(-4.63 12.75) rotate(-18.85)"/><path class="cls-3" d="M42.25,31.28H45a12,12,0,0,1,12,12v1.87a4,4,0,0,1-4,4H34.24a4,4,0,0,1-4-4V43.28a12,12,0,0,1,12-12Z"/><rect class="cls-3" x="36.8" y="24.97" width="13.63" height="6.31"/><polyline class="cls-4" points="11.81 12.36 11.81 7 17.19 7"/><polyline class="cls-4" points="66.81 61.64 66.81 67 61.43 67"/><polyline class="cls-4" points="11.81 61.64 11.81 67 17.19 67"/><polyline class="cls-4" points="66.81 12.36 66.81 7 61.43 7"/><line class="cls-4" x1="24.97" y1="57.75" x2="54.76" y2="57.75"/><line class="cls-4" x1="29.22" y1="62.86" x2="50.5" y2="62.86"/></g></g></svg>