<svg xmlns="http://www.w3.org/2000/svg" viewBox="0 0 80.01 77.42"><defs><style>.cls-1{fill:none;stroke-miterlimit:10;}.cls-1,.cls-2{stroke:#000;stroke-width:2px;}.cls-2{fill:#fff;stroke-linecap:round;stroke-linejoin:round;}</style></defs><g id="Layer_2" data-name="Layer 2"><g id="Layer_1-2" data-name="Layer 1"><path class="cls-1" d="M1,6.68V76.42H79V6.68Z"/><path class="cls-1" d="M40,17.82v44.4h-.09a5.43,5.43,0,0,0-5.37-4.56H6.38V12.36H34.55A5.46,5.46,0,0,1,40,17.82Z"/><path class="cls-1" d="M73.62,12.36v45.3H45.46a5.46,5.46,0,0,0-5.38,4.56H40V17.82a5.45,5.45,0,0,1,5.45-5.46Z"/><path class="cls-1" d="M40,63.12v6H6.38V57.66H34.55a5.43,5.43,0,0,1,5.37,4.56A5.28,5.28,0,0,1,40,63.12Z"/><path class="cls-1" d="M73.62,57.66V69.15H40v-6a5.29,5.29,0,0,1,.07-.9,5.46,5.46,0,0,1,5.38-4.56Z"/><polygon class="cls-2" points="61.03 1 56.81 3.56 52.6 1 52.6 12.35 61.03 12.35 61.03 1"/><line class="cls-1" x1="11.38" y1="19.15" x2="33.16" y2="19.15"/><line class="cls-1" x1="11.38" y1="25.11" x2="29.59" y2="25.11"/><line class="cls-1" x1="11.38" y1="31.07" x2="33.16" y2="31.07"/><line class="cls-1" x1="11.38" y1="37.02" x2="30.95" y2="37.02"/><line class="cls-1" x1="11.38" y1="42.98" x2="27.54" y2="42.98"/><line class="cls-1" x1="11.38" y1="48.94" x2="33.16" y2="48.94"/><line class="cls-1" x1="46.61" y1="19.15" x2="68.38" y2="19.15"/><line class="cls-1" x1="46.61" y1="25.11" x2="64.81" y2="25.11"/><line class="cls-1" x1="46.61" y1="31.07" x2="68.38" y2="31.07"/><line class="cls-1" x1="46.61" y1="37.02" x2="66.17" y2="37.02"/><line class="cls-1" x1="46.61" y1="42.98" x2="68.38" y2="42.98"/><line class="cls-1" x1="46.61" y1="48.94" x2="68.38" y2="48.94"/></g></g></svg>