<svg xmlns="http://www.w3.org/2000/svg" viewBox="0 0 67 92"><defs><style>.cls-1,.cls-2{fill:none;stroke:#000;stroke-width:2px;}.cls-1{stroke-miterlimit:10;}.cls-2{stroke-linecap:round;stroke-linejoin:round;}</style></defs><g id="Layer_2" data-name="Layer 2"><g id="Layer_1-2" data-name="Layer 1"><path class="cls-1" d="M6,80H66V1H5.86A4.87,4.87,0,0,0,1,5.86V84"/><path class="cls-2" d="M5,80H63a0,0,0,0,1,0,0V91a0,0,0,0,1,0,0H5a4,4,0,0,1-4-4V84a4,4,0,0,1,4-4Z"/><line class="cls-2" x1="6" y1="74" x2="6" y2="9"/><line class="cls-2" x1="6" y1="86" x2="63" y2="86"/><path class="cls-1" d="M28.07,14.54l-2.5-2.37,2.5-2.37a10.16,10.16,0,0,1,13.86,0l2.5,2.37-2.5,2.37A10.16,10.16,0,0,1,28.07,14.54Z"/><ellipse class="cls-1" cx="35" cy="11.14" rx="3.75" ry="3.56"/><rect class="cls-1" x="13.5" y="23.1" width="44.72" height="19.4"/><path class="cls-1" d="M46.66,66.34l-2.21,3.83A2.56,2.56,0,0,0,46.66,74h0a2.55,2.55,0,0,0,2.21-3.83Z"/><path class="cls-1" d="M13.5,48a2.5,2.5,0,1,0,5,0v5.62a2.5,2.5,0,0,0,5,0V46.16a2.5,2.5,0,1,0,5,0V71.51a2.5,2.5,0,0,0,5,0v-29h-20Z"/><path class="cls-1" d="M48.24,42.5V48a2.5,2.5,0,1,0,5,0v5.62a2.5,2.5,0,0,0,5,0V46.16h0V42.5Z"/><line class="cls-1" x1="19.98" y1="28.21" x2="51.77" y2="28.21"/><line class="cls-1" x1="25.08" y1="35.35" x2="46.66" y2="35.35"/></g></g></svg>