<svg xmlns="http://www.w3.org/2000/svg" viewBox="0 0 74 85"><defs><style>.cls-1,.cls-2{fill:none;}.cls-1,.cls-2,.cls-3{stroke:#000;stroke-width:2px;}.cls-1,.cls-3{stroke-miterlimit:10;}.cls-2{stroke-linecap:round;stroke-linejoin:round;}.cls-3{fill:#fff;}</style></defs><g id="Layer_2" data-name="Layer 2"><g id="Layer_1-2" data-name="Layer 1"><path class="cls-1" d="M5.58,1H68.42A4.58,4.58,0,0,1,73,5.58V67.92a4.58,4.58,0,0,1-4.58,4.58H1a0,0,0,0,1,0,0V5.58A4.58,4.58,0,0,1,5.58,1Z"/><path class="cls-2" d="M1,73H71a0,0,0,0,1,0,0v8a0,0,0,0,1,0,0H5a4,4,0,0,1-4-4V73A0,0,0,0,1,1,73Z"/><line class="cls-2" x1="5" y1="7" x2="5" y2="67"/><rect class="cls-2" x="10" y="7" width="58" height="60" rx="3.51"/><path class="cls-3" d="M8.88,77h7a0,0,0,0,1,0,0v3.5a3.5,3.5,0,0,1-3.5,3.5h0a3.5,3.5,0,0,1-3.5-3.5V77A0,0,0,0,1,8.88,77Z"/><line class="cls-1" x1="24.35" y1="61.63" x2="53.69" y2="61.63"/><path class="cls-1" d="M50.34,32.39l-11.2,11.2L27.93,32.39C18.5,23,29.71,11.75,39.14,21.18,48.61,11.71,59.82,22.92,50.34,32.39Z"/><line class="cls-1" x1="41.9" y1="33.99" x2="51.5" y2="43.59"/><line class="cls-1" x1="27.08" y1="19.17" x2="20.92" y2="13.01"/><polyline class="cls-1" points="28.84 12.88 21.01 12.92 20.97 20.74"/><polygon class="cls-1" points="49.72 39.11 53.87 43.26 51.81 43.78 51.3 45.84 47.14 41.68 47.65 39.62 49.72 39.11"/><rect class="cls-1" x="25.09" y="49.67" width="27.86" height="5.36" rx="2.68"/></g></g></svg>