<svg xmlns="http://www.w3.org/2000/svg" viewBox="0 0 67 92"><defs><style>.cls-1,.cls-2{fill:none;stroke:#000;stroke-width:2px;}.cls-1{stroke-miterlimit:10;}.cls-2{stroke-linecap:round;stroke-linejoin:round;}</style></defs><g id="Layer_2" data-name="Layer 2"><g id="Layer_1-2" data-name="Layer 1"><path class="cls-1" d="M6,80H66V1H5.86A4.87,4.87,0,0,0,1,5.86V84"/><path class="cls-2" d="M5,80H63a0,0,0,0,1,0,0V91a0,0,0,0,1,0,0H5a4,4,0,0,1-4-4V84a4,4,0,0,1,4-4Z"/><line class="cls-2" x1="6" y1="74" x2="6" y2="9"/><line class="cls-2" x1="6" y1="86" x2="63" y2="86"/><circle class="cls-1" cx="27.32" cy="36.68" r="7.15"/><path class="cls-1" d="M20.32,38.14c-4.36,2.64-6.8,4.77-6.38,5.6.58,1.13,6.8-.91,13.89-4.55s12.38-7.5,11.8-8.63c-.4-.78-3-.41-7.19,1.32"/><path class="cls-1" d="M40.25,63.64l-6.41,3.7a3,3,0,0,0,0,5.11l2,1.15A3,3,0,0,0,40.25,71Z"/><path class="cls-1" d="M54.74,38.55,48,41.46A9.53,9.53,0,0,0,42.77,47L39,57.31l7.36,4.25,7.07-8.44a9.53,9.53,0,0,0,2.17-7.25Z"/><polyline class="cls-1" points="44.03 44.74 32 57.82 39 57.31"/><polyline class="cls-1" points="54.75 50.93 49.44 67.89 46.39 61.57"/><rect class="cls-1" x="47.07" y="24.22" width="2.01" height="2.01" transform="translate(-3.76 41.38) rotate(-45)"/><rect class="cls-1" x="14.99" y="54.56" width="2.01" height="2.01" transform="translate(-34.61 27.58) rotate(-45)"/><rect class="cls-1" x="19.71" y="66.89" width="2.01" height="2.01" transform="translate(-41.94 34.53) rotate(-45)"/><rect class="cls-1" x="55.82" y="66.89" width="2.01" height="2.01" transform="translate(-31.36 60.07) rotate(-45)"/><rect class="cls-1" x="14.31" y="22.54" width="2.01" height="2.01" transform="translate(-12.16 17.73) rotate(-45)"/><line class="cls-1" x1="17.99" y1="9" x2="53.56" y2="9"/><line class="cls-1" x1="22.75" y1="14.89" x2="48.8" y2="14.89"/></g></g></svg>