<svg xmlns="http://www.w3.org/2000/svg" viewBox="0 0 67 92"><defs><style>.cls-1,.cls-2{fill:none;}.cls-1,.cls-2,.cls-3{stroke:#000;stroke-width:2px;}.cls-1{stroke-miterlimit:10;}.cls-2,.cls-3{stroke-linecap:round;stroke-linejoin:round;}.cls-3{fill:#fff;}</style></defs><g id="Layer_2" data-name="Layer 2"><g id="Layer_1-2" data-name="Layer 1"><path class="cls-1" d="M6,80H66V1H5.86A4.87,4.87,0,0,0,1,5.86V84"/><path class="cls-2" d="M5,80H63a0,0,0,0,1,0,0v8a0,0,0,0,1,0,0H5a4,4,0,0,1-4-4v0a4,4,0,0,1,4-4Z"/><line class="cls-2" x1="6" y1="1" x2="6" y2="80"/><rect class="cls-2" x="12" y="7" width="49" height="67"/><polygon class="cls-3" points="19 91 15.5 88.5 12 91 12 84 19 84 19 91"/><path class="cls-1" d="M45,29.91h8.34a16.76,16.76,0,0,0-2.67-9.08,31,31,0,0,1-6.44,2.11A31.13,31.13,0,0,1,45,29.91Z"/><path class="cls-1" d="M28.83,22.66a29.51,29.51,0,0,1-6.21-2.3,16.76,16.76,0,0,0-3,9.55H28A31.08,31.08,0,0,1,28.83,22.66Z"/><path class="cls-1" d="M44,37.76A30.89,30.89,0,0,1,50.2,39.7a16.81,16.81,0,0,0,3.15-9.79H45A30.89,30.89,0,0,1,44,37.76Z"/><path class="cls-1" d="M28,29.91H19.65a16.68,16.68,0,0,0,3.48,10.22A29.67,29.67,0,0,1,29,38,30.6,30.6,0,0,1,28,29.91Z"/><path class="cls-1" d="M44.24,22.94a34.73,34.73,0,0,1-7.1.73,34.21,34.21,0,0,1-8.31-1A31.08,31.08,0,0,0,28,29.91H45A31.13,31.13,0,0,0,44.24,22.94Z"/><path class="cls-1" d="M44,37.76a30.89,30.89,0,0,0,1-7.85H28A30.6,30.6,0,0,0,29,38a34.17,34.17,0,0,1,8.1-1A35,35,0,0,1,44,37.76Z"/><path class="cls-1" d="M36.5,13.06c3.44,0,6.4,4,7.74,9.88a31,31,0,0,0,6.44-2.11A16.82,16.82,0,0,0,36.5,13.06Z"/><path class="cls-1" d="M36.5,13.06a16.82,16.82,0,0,0-13.88,7.3,29.51,29.51,0,0,0,6.21,2.3C30.2,17,33.11,13.06,36.5,13.06Z"/><path class="cls-1" d="M44.24,22.94c-1.34-5.83-4.3-9.88-7.74-9.88s-6.3,3.93-7.67,9.6a34.21,34.21,0,0,0,8.31,1A34.73,34.73,0,0,0,44.24,22.94Z"/><path class="cls-1" d="M36.5,46.76A16.82,16.82,0,0,0,50.2,39.7,30.89,30.89,0,0,0,44,37.76C42.6,43.11,39.77,46.76,36.5,46.76Z"/><path class="cls-1" d="M36.5,46.76c-3.21,0-6-3.53-7.46-8.73a29.67,29.67,0,0,0-5.91,2.1A16.8,16.8,0,0,0,36.5,46.76Z"/><path class="cls-1" d="M44,37.76a35,35,0,0,0-6.89-.69A34.17,34.17,0,0,0,29,38c1.45,5.2,4.25,8.73,7.46,8.73S42.6,43.11,44,37.76Z"/><rect class="cls-1" x="19.65" y="58.22" width="33.7" height="9.87"/><line class="cls-1" x1="18.77" y1="53.8" x2="38.89" y2="53.63"/></g></g></svg>