<svg xmlns="http://www.w3.org/2000/svg" viewBox="0 0 74 82"><defs><style>.cls-1,.cls-2,.cls-3{fill:none;stroke:#000;stroke-width:2px;}.cls-1,.cls-3{stroke-miterlimit:10;}.cls-2,.cls-3{stroke-linecap:round;}.cls-2{stroke-linejoin:round;}</style></defs><g id="Layer_2" data-name="Layer 2"><g id="Layer_1-2" data-name="Layer 1"><path class="cls-1" d="M5.58,1H68.42A4.58,4.58,0,0,1,73,5.58V67.92a4.58,4.58,0,0,1-4.58,4.58H1a0,0,0,0,1,0,0V5.58A4.58,4.58,0,0,1,5.58,1Z"/><path class="cls-2" d="M1,73H71a0,0,0,0,1,0,0v8a0,0,0,0,1,0,0H5a4,4,0,0,1-4-4V73A0,0,0,0,1,1,73Z"/><line class="cls-2" x1="5" y1="7" x2="5" y2="67"/><rect class="cls-2" x="10" y="7" width="58" height="60" rx="3.51"/><path class="cls-1" d="M28.59,40.38c-3.14-2.65-4-5.88-4-10.32a14.43,14.43,0,0,1,28.86,0c0,8-6.48,15-14.43,14.44a27.57,27.57,0,0,1-5.59-.83"/><polyline class="cls-1" points="28.28 39.87 28.28 45.42 33.78 43.65"/><path class="cls-1" d="M31,27.16h0a26.88,26.88,0,0,0,17,0h0"/><line class="cls-3" x1="36.54" y1="22.51" x2="36.54" y2="23.59"/><line class="cls-3" x1="42.7" y1="22.51" x2="42.7" y2="23.59"/><line class="cls-1" x1="25.26" y1="55" x2="53.76" y2="55"/><line class="cls-1" x1="31.84" y1="60.62" x2="47.19" y2="60.62"/></g></g></svg>