<svg xmlns="http://www.w3.org/2000/svg" viewBox="0 0 67 89"><defs><style>.cls-1,.cls-2,.cls-3,.cls-4{fill:none;stroke-width:2px;}.cls-1,.cls-2,.cls-4{stroke:#000;}.cls-1,.cls-3{stroke-miterlimit:10;}.cls-2{stroke-linecap:round;}.cls-2,.cls-4{stroke-linejoin:round;}.cls-3{stroke:#231f20;}</style></defs><g id="Layer_2" data-name="Layer 2"><g id="Layer_1-2" data-name="Layer 1"><path class="cls-1" d="M6,80H66V1H5.86A4.87,4.87,0,0,0,1,5.86V84"/><path class="cls-2" d="M5,80H63a0,0,0,0,1,0,0v8a0,0,0,0,1,0,0H5a4,4,0,0,1-4-4v0a4,4,0,0,1,4-4Z"/><line class="cls-2" x1="6" y1="1" x2="6" y2="80"/><rect class="cls-2" x="12" y="7" width="49" height="49"/><path class="cls-3" d="M50.72,12.86l-6.15,4a3.23,3.23,0,0,0-.59.51L23.77,40.23a2.94,2.94,0,0,0,.14,4h0a2.94,2.94,0,0,0,4.05.07L50.4,23.7a2.84,2.84,0,0,0,.5-.59l3.92-6.23A2.94,2.94,0,0,0,50.72,12.86Z"/><polygon class="cls-3" points="25.72 36.52 16.35 35.38 15.78 36.29 23 40.84 25.72 36.52"/><polygon class="cls-3" points="31.47 42.16 32.79 51.51 31.89 52.1 27.2 44.96 31.47 42.16"/><polygon class="cls-3" points="43.69 17.22 25.24 12.03 23.81 13.68 36.91 25.04 43.69 17.22"/><path class="cls-3" d="M37.24,14.64c1.16-1.19,1.54-2.71.84-3.4s-2.22-.28-3.39.91a3.94,3.94,0,0,0-1.17,2.21l3,.85A5,5,0,0,0,37.24,14.64Z"/><polygon class="cls-3" points="50.78 24.17 56.32 42.53 54.69 43.99 43.09 31.1 50.78 24.17"/><path class="cls-3" d="M53.48,30.58c1.17-1.19,2.68-1.59,3.39-.9s.32,2.21-.85,3.4a3.92,3.92,0,0,1-2.18,1.21l-.91-3A5.73,5.73,0,0,1,53.48,30.58Z"/><line class="cls-4" x1="12" y1="63.57" x2="46.61" y2="63.57"/><line class="cls-4" x1="12" y1="70.72" x2="39.71" y2="70.72"/></g></g></svg>