<svg xmlns="http://www.w3.org/2000/svg" viewBox="0 0 67 92"><defs><style>.cls-1,.cls-2{fill:none;}.cls-1,.cls-2,.cls-3{stroke:#000;stroke-width:2px;}.cls-1{stroke-miterlimit:10;}.cls-2,.cls-3{stroke-linecap:round;stroke-linejoin:round;}.cls-3{fill:#fff;}</style></defs><g id="Layer_2" data-name="Layer 2"><g id="Layer_1-2" data-name="Layer 1"><path class="cls-1" d="M6,80H66V1H5.86A4.87,4.87,0,0,0,1,5.86V84"/><path class="cls-2" d="M5,80H63a0,0,0,0,1,0,0v8a0,0,0,0,1,0,0H5a4,4,0,0,1-4-4v0A4,4,0,0,1,5,80Z"/><line class="cls-2" x1="6" y1="75" x2="6" y2="6"/><polygon class="cls-3" points="20 91 16.5 88.5 13 91 13 84 20 84 20 91"/><path class="cls-1" d="M39.35,19.67c-.45,0-1.54-2.3-3.64-1.15s-8.54,1.65-8.54,1.65c-.37,2,2.36,3.16,2.36,3.16a3.31,3.31,0,0,1-2.05,1.33,4.87,4.87,0,0,0,2.69,1.86,6.52,6.52,0,0,0-.24,1.77,6.77,6.77,0,1,0,13.2-2.13C44,23.83,45.09,19.29,39.35,19.67Z"/><path class="cls-1" d="M50.49,50.73V42.45a7.42,7.42,0,0,0-7.4-7.4h-14a7.43,7.43,0,0,0-7.41,7.4v8.28Z"/><rect class="cls-1" x="12.33" y="50.73" width="47.55" height="24.27"/><polygon class="cls-1" points="57.85 15.22 53.84 21.11 49.83 15.22 53.84 9.33 57.85 15.22"/><line class="cls-1" x1="19.36" y1="59.54" x2="54.3" y2="59.54"/><line class="cls-1" x1="19.36" y1="66.18" x2="44.31" y2="66.18"/></g></g></svg>